<svg width="830" height="560" viewBox="0 0 830 560" fill="none" xmlns="http://www.w3.org/2000/svg">
<path d="M0 0H415V560H0V0Z" fill="#0EA3DB"/>
<path d="M0 0H415V560H0V0Z" fill="url(#paint0_radial)" fill-opacity="0.15"/>
<path d="M415 0H830V560H415V0Z" fill="#056387"/>
<path d="M415 0H830V560H415V0Z" fill="url(#paint1_radial)" fill-opacity="0.15"/>
<path d="M528.792 180.855C527.202 180.855 526.408 180.401 526.408 179.492C526.408 178.78 526.848 178.423 527.728 178.423L529.526 178.608C530.993 178.608 531.984 177.785 532.497 176.138C532.913 174.738 533.121 172.232 533.121 168.621V142.603C533.121 138.992 532.95 136.633 532.607 135.528C532.265 134.398 531.849 133.636 531.36 133.243C530.895 132.825 530.284 132.616 529.526 132.616L527.728 132.764C526.848 132.764 526.408 132.408 526.408 131.695C526.408 130.786 527.08 130.332 528.425 130.332C529.77 130.332 530.944 130.43 531.947 130.626C532.95 130.823 533.94 130.921 534.918 130.921C537.511 130.921 539.663 130.798 541.375 130.553C543.967 130.184 546.938 130 550.289 130C553.664 130 557.014 130.602 560.34 131.806C563.691 133.01 566.564 134.717 568.961 136.928C574.072 141.621 576.628 147.787 576.628 155.428C576.628 162.675 574.121 168.707 569.108 173.522C563.923 178.534 557.124 181.04 548.711 181.04C546.682 181.04 544.713 180.954 542.805 180.782C539.259 180.462 536.691 180.303 535.102 180.303L528.792 180.855ZM538.88 163.314C538.88 167.687 538.99 171.753 539.21 175.512C542.463 177.207 546.119 178.055 550.179 178.055C553.138 178.055 556.207 177.355 559.387 175.954C564.424 173.743 567.714 169.788 569.254 164.088C569.817 162.073 570.098 159.469 570.098 156.275C570.098 153.057 569.548 149.949 568.447 146.952C567.371 143.93 565.855 141.387 563.899 139.324C559.912 135.073 554.544 132.948 547.794 132.948C542.977 132.948 540.213 133.587 539.504 134.864C539.137 135.552 538.941 136.339 538.917 137.223C538.892 138.083 538.88 138.93 538.88 139.766V163.314Z" fill="white"/>
<path d="M616.724 175.365C617.433 175.365 617.787 175.696 617.787 176.36C617.787 176.998 617.078 177.613 615.66 178.202C614.241 178.792 613.251 179.332 612.688 179.824C612.126 180.29 611.71 180.634 611.441 180.855C611.172 181.101 610.854 181.224 610.487 181.224C609.754 181.224 609.142 180.917 608.653 180.303C608.164 179.689 607.504 178.374 606.672 176.36C605.278 177.956 603.578 179.173 601.573 180.008C599.592 180.819 597.623 181.224 595.667 181.224C591.974 181.224 589.113 180.278 587.083 178.386C585.053 176.495 584.038 173.903 584.038 170.611C584.038 167.319 585.567 164.653 588.624 162.614C591.705 160.55 595.63 159.518 600.399 159.518C601.818 159.518 603.689 159.764 606.012 160.255V157.381C606.012 151.067 603.358 147.91 598.051 147.91C595.239 147.91 593.172 149.212 591.852 151.816C590.702 154.15 589.577 155.317 588.477 155.317C587.67 155.317 586.961 155.084 586.349 154.617C585.762 154.15 585.469 153.561 585.469 152.848C585.469 152.136 585.836 151.349 586.569 150.49C587.303 149.605 588.281 148.807 589.504 148.094C592.39 146.399 595.557 145.551 599.005 145.551C605.119 145.551 609.069 147.554 610.854 151.558C611.514 152.983 611.845 154.728 611.845 156.791V171.495C611.845 173.387 612.028 174.603 612.395 175.143C612.762 175.684 613.275 175.954 613.936 175.954C614.596 175.954 615.134 175.856 615.55 175.659C615.965 175.463 616.357 175.365 616.724 175.365ZM606.012 163.683C604.251 162.675 602.026 162.172 599.335 162.172C596.645 162.172 594.481 162.847 592.842 164.198C591.228 165.55 590.421 167.368 590.421 169.653C590.421 171.913 591.045 173.805 592.292 175.328C593.539 176.826 595.141 177.576 597.098 177.576C601.28 177.576 604.288 176.2 606.122 173.448C606.049 172.76 606.012 171.999 606.012 171.163V163.683Z" fill="white"/>
<path d="M623.143 180.855C621.554 180.855 620.759 180.401 620.759 179.492C620.759 178.78 621.199 178.423 622.079 178.423L623.877 178.608C625.344 178.608 626.335 177.785 626.848 176.138C627.264 174.738 627.472 172.232 627.472 168.621V142.603C627.472 138.992 627.301 136.633 626.958 135.528C626.616 134.398 626.2 133.636 625.711 133.243C625.247 132.825 624.635 132.616 623.877 132.616L622.079 132.764C621.199 132.764 620.759 132.408 620.759 131.695C620.759 130.786 621.431 130.332 622.776 130.332C624.122 130.332 625.393 130.43 626.592 130.626C627.814 130.823 629.086 130.921 630.407 130.921C631.727 130.921 632.987 130.823 634.185 130.626C635.408 130.43 636.961 130.332 638.844 130.332C640.752 130.332 642.794 130.639 644.97 131.253C647.147 131.867 648.981 132.739 650.473 133.869C653.579 136.203 655.132 139.299 655.132 143.156C655.132 147.431 653.383 151.116 649.886 154.212C648.761 155.194 647.514 156.03 646.144 156.718L658.066 174.112C659.412 176.102 660.891 177.305 662.505 177.723C662.97 177.846 663.557 177.944 664.266 178.018C665.513 178.141 666.137 178.558 666.137 179.271C666.137 179.959 665.464 180.303 664.119 180.303H657.076C655.389 180.303 653.86 179.197 652.49 176.986L643.246 162.135C642.415 160.833 641.62 159.911 640.862 159.371C640.104 158.806 638.93 158.523 637.34 158.523C635.775 158.523 634.405 158.56 633.231 158.634V168.621C633.231 172.33 633.39 174.726 633.708 175.807C634.051 176.863 634.454 177.6 634.919 178.018C635.408 178.411 636.044 178.608 636.826 178.608L638.587 178.423C639.468 178.423 639.908 178.78 639.908 179.492C639.908 180.401 639.125 180.855 637.56 180.855C636.753 180.855 635.897 180.782 634.992 180.634C632.057 180.168 629.539 180.082 627.435 180.376C625.357 180.696 623.926 180.855 623.143 180.855ZM633.231 155.391C634.821 155.563 636.35 155.649 637.817 155.649H640.128C642.5 155.649 644.506 154.838 646.144 153.217C648.052 151.325 649.006 148.745 649.006 145.478C649.006 141.547 647.819 138.439 645.447 136.154C643.222 133.992 640.36 132.911 636.863 132.911C635.616 132.911 634.699 133.083 634.112 133.427C633.525 133.771 633.231 134.361 633.231 135.196V155.391Z" fill="white"/>
<path d="M670.906 180.855C669.316 180.855 668.521 180.401 668.521 179.492C668.521 178.78 668.962 178.423 669.842 178.423L671.64 178.608C673.058 178.608 674 177.944 674.464 176.618C674.978 175.193 675.235 172.527 675.235 168.621V142.603C675.235 138.623 675.027 136.105 674.611 135.049C674.22 133.992 673.792 133.329 673.327 133.059C672.862 132.764 672.3 132.616 671.64 132.616L669.842 132.764C668.962 132.764 668.521 132.408 668.521 131.695C668.521 130.786 669.194 130.332 670.539 130.332C671.884 130.332 673.156 130.43 674.354 130.626C675.577 130.823 676.836 130.921 678.133 130.921C679.453 130.921 680.7 130.823 681.874 130.626C683.073 130.43 684.332 130.332 685.653 130.332C686.998 130.332 687.67 130.786 687.67 131.695C687.67 132.408 687.23 132.764 686.35 132.764L684.589 132.616C683.244 132.616 682.315 133.28 681.801 134.606C681.263 135.958 680.994 138.623 680.994 142.603V154.285L691.412 141.866C695.423 137.1 697.538 134.508 697.759 134.091C697.979 133.673 698.089 133.378 698.089 133.206C698.089 133.034 697.966 132.899 697.722 132.801C697.502 132.702 697.245 132.616 696.951 132.543C696.193 132.395 695.814 132.101 695.814 131.658C695.814 130.946 696.365 130.59 697.465 130.59C697.807 130.59 698.199 130.614 698.639 130.663C699.079 130.688 699.519 130.725 699.96 130.774C700.4 130.798 700.816 130.835 701.207 130.884C701.623 130.909 701.977 130.921 702.271 130.921C702.564 130.921 702.943 130.897 703.408 130.848C703.873 130.774 704.337 130.712 704.802 130.663C705.267 130.59 705.695 130.528 706.086 130.479C706.502 130.405 706.807 130.369 707.003 130.369C708.446 130.369 709.167 130.762 709.167 131.548C709.167 131.99 709.008 132.26 708.69 132.359C708.397 132.432 708.067 132.518 707.7 132.616C707.333 132.715 706.832 132.911 706.196 133.206C705.56 133.501 704.79 133.943 703.885 134.533C703.004 135.098 702.014 135.847 700.913 136.781C698.468 138.869 695.814 141.657 692.953 145.146L688.367 150.674L707.003 174.112C709.375 176.495 711.368 177.785 712.982 177.981C713.838 178.104 714.389 178.264 714.633 178.46C714.878 178.657 715 178.902 715 179.197C715 179.934 714.205 180.303 712.616 180.303H705.169C703.848 180.352 702.344 179.246 700.657 176.986L684.516 155.317L680.994 159.518V168.621C680.994 172.601 681.19 175.119 681.581 176.175C681.997 177.232 682.437 177.907 682.902 178.202C683.366 178.472 683.929 178.608 684.589 178.608L686.35 178.423C687.23 178.423 687.67 178.78 687.67 179.492C687.67 180.401 686.888 180.855 685.323 180.855C684.516 180.855 683.66 180.782 682.755 180.634C679.82 180.168 677.301 180.082 675.198 180.376C673.119 180.696 671.688 180.855 670.906 180.855Z" fill="white"/>
<path d="M538.782 193.984C538.782 194.268 538.684 194.41 538.489 194.41C538.315 194.41 538.17 194.235 538.054 193.886C537.945 193.529 537.735 193.194 537.424 192.881C537.112 192.568 536.739 192.306 536.304 192.095C535.398 191.651 534.424 191.429 533.38 191.429C532.344 191.429 531.446 191.571 530.685 191.855C529.931 192.132 529.283 192.532 528.739 193.056C527.609 194.17 527.043 195.673 527.043 197.566C527.043 199.662 527.681 201.391 528.956 202.752C530.225 204.106 531.848 204.783 533.826 204.783C536.029 204.783 537.732 203.768 538.934 201.737C539.014 201.606 539.098 201.533 539.184 201.518C539.264 201.518 539.344 201.606 539.424 201.78C539.503 201.955 539.543 202.152 539.543 202.37C539.543 202.734 539.235 203.207 538.619 203.79C538.003 204.372 537.253 204.841 536.369 205.198C535.493 205.555 534.467 205.733 533.293 205.733C532.127 205.733 531.018 205.544 529.967 205.165C528.924 204.78 528.036 204.255 527.304 203.593C525.768 202.21 525 200.481 525 198.406C525 196.063 525.775 194.17 527.326 192.729C528.877 191.28 530.917 190.556 533.445 190.556C535.272 190.556 536.782 190.8 537.978 191.287C538.21 191.389 538.362 191.487 538.434 191.582C538.579 191.786 538.663 192.092 538.684 192.499C538.713 192.9 538.732 193.176 538.739 193.329C538.768 193.686 538.782 193.904 538.782 193.984Z" fill="#E3E0E0"/>
<path d="M550.869 203.997C551.079 203.997 551.184 204.095 551.184 204.292C551.184 204.481 550.974 204.663 550.554 204.838C550.134 205.013 549.84 205.173 549.673 205.318C549.507 205.457 549.384 205.558 549.304 205.624C549.224 205.697 549.13 205.733 549.021 205.733C548.804 205.733 548.623 205.642 548.478 205.46C548.333 205.278 548.137 204.889 547.891 204.292C547.478 204.765 546.974 205.125 546.38 205.373C545.793 205.613 545.21 205.733 544.63 205.733C543.536 205.733 542.688 205.453 542.087 204.892C541.485 204.332 541.184 203.564 541.184 202.588C541.184 201.613 541.637 200.823 542.543 200.219C543.456 199.608 544.619 199.302 546.032 199.302C546.452 199.302 547.007 199.375 547.695 199.52V198.669C547.695 196.798 546.909 195.862 545.337 195.862C544.503 195.862 543.891 196.248 543.5 197.02C543.159 197.711 542.826 198.057 542.5 198.057C542.261 198.057 542.05 197.988 541.869 197.85C541.695 197.711 541.608 197.537 541.608 197.326C541.608 197.114 541.717 196.881 541.934 196.627C542.152 196.365 542.442 196.128 542.804 195.917C543.659 195.415 544.597 195.164 545.619 195.164C547.431 195.164 548.601 195.757 549.13 196.943C549.326 197.366 549.423 197.882 549.423 198.494V202.851C549.423 203.411 549.478 203.771 549.586 203.932C549.695 204.092 549.847 204.172 550.043 204.172C550.239 204.172 550.398 204.143 550.521 204.084C550.644 204.026 550.76 203.997 550.869 203.997ZM547.695 200.536C547.173 200.237 546.514 200.088 545.717 200.088C544.92 200.088 544.279 200.288 543.793 200.689C543.315 201.089 543.076 201.628 543.076 202.305C543.076 202.974 543.26 203.535 543.63 203.986C544 204.43 544.474 204.652 545.054 204.652C546.293 204.652 547.184 204.245 547.728 203.429C547.706 203.225 547.695 203 547.695 202.752V200.536Z" fill="#E3E0E0"/>
<path d="M552.652 205.624C552.173 205.624 551.934 205.489 551.934 205.22C551.934 205.009 552.068 204.903 552.336 204.903L552.88 204.958C553.047 204.958 553.184 204.929 553.293 204.871C553.402 204.805 553.485 204.67 553.543 204.467C553.659 204.095 553.717 203.273 553.717 201.999V193.864C553.717 192.656 553.467 192.015 552.967 191.942C552.604 191.884 552.423 191.764 552.423 191.582C552.423 191.415 552.594 191.298 552.934 191.233C553.275 191.16 553.583 191.073 553.858 190.971C554.133 190.861 554.376 190.76 554.586 190.665C554.796 190.563 554.974 190.476 555.119 190.403C555.271 190.33 555.38 190.294 555.445 190.294C555.612 190.294 555.695 190.377 555.695 190.545C555.695 190.625 555.681 190.709 555.652 190.796C555.499 191.189 555.42 191.688 555.412 192.292C555.405 192.896 555.402 193.391 555.402 193.777V201.999C555.402 203.273 555.445 204.055 555.532 204.346C555.619 204.63 555.717 204.805 555.825 204.871C555.934 204.929 556.072 204.958 556.238 204.958L556.782 204.903C557.05 204.903 557.184 205.009 557.184 205.22C557.184 205.489 556.945 205.624 556.467 205.624C556.191 205.624 555.905 205.595 555.608 205.537C555.311 205.486 554.97 205.46 554.586 205.46C554.202 205.46 553.851 205.486 553.532 205.537C553.22 205.595 552.927 205.624 552.652 205.624Z" fill="#E3E0E0"/>
<path d="M558.564 200.612C558.564 199.906 558.691 199.222 558.945 198.559C559.199 197.897 559.557 197.315 560.021 196.812C561.035 195.713 562.3 195.164 563.814 195.164C565.496 195.164 566.789 195.669 567.695 196.681C568.514 197.598 568.923 198.789 568.923 200.252C568.923 201.73 568.434 203.007 567.456 204.084C566.456 205.184 565.195 205.733 563.673 205.733C561.992 205.733 560.702 205.227 559.804 204.215C558.978 203.298 558.564 202.097 558.564 200.612ZM560.401 200.154C560.401 200.867 560.499 201.533 560.695 202.152C560.891 202.77 561.159 203.284 561.499 203.691C562.173 204.521 563.025 204.936 564.054 204.936C564.967 204.936 565.709 204.572 566.282 203.844C566.876 203.087 567.173 202.112 567.173 200.918C567.173 199.338 566.811 198.101 566.086 197.205C565.405 196.383 564.55 195.972 563.521 195.972C562.608 195.972 561.865 196.336 561.293 197.063C560.699 197.821 560.401 198.851 560.401 200.154Z" fill="#E3E0E0"/>
<path d="M570.966 205.624C570.481 205.624 570.238 205.489 570.238 205.22C570.238 205.009 570.372 204.903 570.64 204.903L571.184 204.958C571.35 204.958 571.488 204.929 571.597 204.871C571.706 204.805 571.789 204.67 571.847 204.467C571.963 204.095 572.021 203.273 572.021 201.999V198.734C572.021 197.992 571.974 197.529 571.879 197.347C571.792 197.158 571.684 197.031 571.553 196.965C571.43 196.892 571.224 196.834 570.934 196.79C570.651 196.747 570.51 196.634 570.51 196.452C570.51 196.285 570.695 196.164 571.064 196.092C571.927 195.91 572.521 195.728 572.847 195.546C573.289 195.291 573.59 195.164 573.749 195.164C573.916 195.164 573.999 195.247 573.999 195.415C573.999 195.495 573.981 195.578 573.945 195.666C573.916 195.753 573.883 195.859 573.847 195.982C573.789 196.23 573.745 196.696 573.716 197.38C574.347 196.317 575.108 195.655 575.999 195.393C576.26 195.313 576.55 195.273 576.868 195.273C577.195 195.273 577.481 195.389 577.727 195.622C577.981 195.855 578.108 196.103 578.108 196.365C578.108 196.627 578.079 196.82 578.021 196.943C577.963 197.067 577.89 197.173 577.803 197.26C577.615 197.449 577.445 197.544 577.292 197.544C577.147 197.544 577.035 197.507 576.955 197.435C576.876 197.355 576.785 197.213 576.684 197.009C576.503 196.645 576.3 196.463 576.075 196.463C575.85 196.463 575.637 196.514 575.434 196.616C575.231 196.71 575.028 196.856 574.825 197.053C574.383 197.467 574.01 198.032 573.705 198.745V201.999C573.705 203.382 573.742 204.197 573.814 204.445C573.894 204.685 573.988 204.831 574.097 204.881C574.213 204.925 574.369 204.947 574.564 204.947L575.532 204.86C575.676 204.86 575.792 204.896 575.879 204.969C575.966 205.034 576.01 205.118 576.01 205.22C576.01 205.489 575.745 205.624 575.216 205.624L572.923 205.46C572.553 205.46 572.202 205.486 571.869 205.537C571.542 205.595 571.242 205.624 570.966 205.624Z" fill="#E3E0E0"/>
<path d="M582.771 191.91C582.771 192.215 582.665 192.477 582.455 192.696C582.252 192.907 581.973 193.012 581.618 193.012C581.271 193.012 580.999 192.911 580.803 192.707C580.615 192.496 580.521 192.27 580.521 192.03C580.521 191.782 580.553 191.593 580.618 191.462C580.684 191.331 580.767 191.218 580.868 191.123C581.093 190.927 581.365 190.829 581.684 190.829C582.01 190.829 582.271 190.931 582.466 191.134C582.669 191.338 582.771 191.597 582.771 191.91ZM579.781 205.624C579.296 205.624 579.053 205.489 579.053 205.22C579.053 205.009 579.187 204.903 579.455 204.903L579.999 204.958C580.165 204.958 580.303 204.929 580.412 204.871C580.521 204.805 580.608 204.67 580.673 204.467C580.789 204.103 580.847 203.28 580.847 201.999V198.712C580.847 197.992 580.796 197.537 580.694 197.347C580.6 197.151 580.492 197.02 580.368 196.954C580.245 196.881 580.039 196.827 579.749 196.79C579.466 196.747 579.325 196.63 579.325 196.441C579.325 196.274 579.513 196.15 579.89 196.07C580.752 195.895 581.347 195.717 581.673 195.535C582.122 195.28 582.43 195.153 582.597 195.153C582.763 195.153 582.847 195.236 582.847 195.404C582.847 195.484 582.832 195.568 582.803 195.655C582.636 196.157 582.553 197.147 582.553 198.625V201.999C582.553 203.28 582.597 204.063 582.684 204.346C582.778 204.63 582.879 204.805 582.988 204.871C583.097 204.929 583.234 204.958 583.401 204.958L583.944 204.903C584.213 204.903 584.347 205.009 584.347 205.22C584.347 205.489 584.104 205.624 583.618 205.624C583.343 205.624 583.046 205.595 582.727 205.537C582.415 205.486 582.078 205.46 581.716 205.46C581.354 205.46 581.01 205.486 580.684 205.537C580.358 205.595 580.057 205.624 579.781 205.624Z" fill="#E3E0E0"/>
<path d="M586.89 204.237C586.47 203.764 586.144 203.207 585.912 202.567C585.687 201.926 585.575 201.216 585.575 200.437C585.575 199.651 585.709 198.931 585.977 198.275C586.245 197.62 586.615 197.06 587.086 196.594C588.064 195.626 589.27 195.142 590.705 195.142C591.893 195.142 592.854 195.535 593.585 196.321C594.281 197.078 594.629 198.013 594.629 199.127C594.629 199.491 594.578 199.742 594.477 199.881C594.383 200.012 594.263 200.092 594.118 200.121C593.973 200.143 593.774 200.164 593.52 200.186C593.267 200.201 592.959 200.219 592.596 200.241C592.234 200.263 591.828 200.285 591.379 200.306C590.937 200.328 590.484 200.354 590.02 200.383C588.955 200.448 588.1 200.514 587.455 200.579C587.615 202.538 588.361 203.808 589.694 204.39C590.129 204.579 590.593 204.674 591.086 204.674C592.129 204.674 592.955 204.368 593.564 203.757C593.825 203.495 594.024 203.364 594.162 203.364C594.422 203.364 594.553 203.52 594.553 203.833C594.553 203.993 594.444 204.186 594.227 204.412C594.009 204.638 593.698 204.871 593.292 205.111C592.575 205.526 591.738 205.733 590.781 205.733C589.825 205.733 589.042 205.602 588.433 205.34C587.832 205.071 587.318 204.703 586.89 204.237ZM587.433 199.771C590.832 199.597 592.622 199.411 592.803 199.215C592.868 199.142 592.901 198.927 592.901 198.57C592.901 198.214 592.832 197.868 592.694 197.533C592.557 197.191 592.372 196.9 592.14 196.659C591.662 196.172 591.067 195.928 590.357 195.928C589.553 195.928 588.875 196.266 588.325 196.943C587.745 197.649 587.448 198.592 587.433 199.771Z" fill="#E3E0E0"/>
<path d="M597.401 204.871C597.067 204.63 596.806 204.368 596.618 204.084C596.43 203.793 596.335 203.568 596.335 203.407C596.335 203.24 596.357 203.116 596.401 203.036C596.451 202.949 596.517 202.869 596.596 202.796C596.785 202.614 596.966 202.523 597.14 202.523C597.321 202.523 597.459 202.567 597.553 202.654C597.647 202.734 597.734 202.898 597.814 203.145C597.901 203.386 598.02 203.619 598.172 203.844C598.332 204.07 598.52 204.266 598.738 204.434C599.209 204.791 599.785 204.969 600.466 204.969C601.067 204.969 601.578 204.82 601.998 204.521C602.44 204.215 602.661 203.833 602.661 203.375C602.661 202.909 602.462 202.501 602.064 202.152C601.636 201.78 601.002 201.427 600.161 201.093C599.321 200.75 598.723 200.463 598.368 200.23C598.013 199.997 597.723 199.75 597.498 199.487C597.071 198.985 596.857 198.41 596.857 197.762C596.857 197.02 597.19 196.401 597.857 195.906C598.531 195.411 599.375 195.164 600.39 195.164C601.266 195.164 602.006 195.349 602.607 195.72C603.129 196.048 603.39 196.394 603.39 196.758C603.39 196.947 603.292 197.111 603.096 197.249C602.908 197.38 602.727 197.446 602.553 197.446C602.386 197.446 602.256 197.413 602.161 197.347C602.067 197.275 601.926 197.093 601.737 196.801C601.368 196.226 600.806 195.939 600.053 195.939C599.205 195.939 598.643 196.194 598.368 196.703C598.288 196.849 598.248 197.005 598.248 197.173C598.248 197.34 598.281 197.504 598.346 197.664C598.419 197.817 598.549 197.977 598.738 198.144C599.136 198.479 599.868 198.869 600.933 199.313C603.02 200.179 604.064 201.289 604.064 202.643C604.064 203.553 603.698 204.296 602.966 204.871C602.227 205.446 601.277 205.733 600.118 205.733C599.089 205.733 598.183 205.446 597.401 204.871Z" fill="#E3E0E0"/>
<path d="M625.541 193.984C625.541 194.268 625.444 194.41 625.248 194.41C625.074 194.41 624.929 194.235 624.813 193.886C624.704 193.529 624.494 193.194 624.183 192.881C623.871 192.568 623.498 192.306 623.063 192.095C622.157 191.651 621.183 191.429 620.139 191.429C619.103 191.429 618.205 191.571 617.444 191.855C616.69 192.132 616.042 192.532 615.498 193.056C614.368 194.17 613.802 195.673 613.802 197.566C613.802 199.662 614.44 201.391 615.715 202.752C616.984 204.106 618.607 204.783 620.585 204.783C622.788 204.783 624.491 203.768 625.693 201.737C625.773 201.606 625.857 201.533 625.943 201.518C626.023 201.518 626.103 201.606 626.183 201.78C626.262 201.955 626.302 202.152 626.302 202.37C626.302 202.734 625.994 203.207 625.378 203.79C624.762 204.372 624.012 204.841 623.128 205.198C622.252 205.555 621.226 205.733 620.052 205.733C618.886 205.733 617.777 205.544 616.726 205.165C615.683 204.78 614.795 204.255 614.063 203.593C612.527 202.21 611.759 200.481 611.759 198.406C611.759 196.063 612.534 194.17 614.085 192.729C615.636 191.28 617.676 190.556 620.204 190.556C622.031 190.556 623.541 190.8 624.737 191.287C624.969 191.389 625.121 191.487 625.194 191.582C625.338 191.786 625.422 192.092 625.444 192.499C625.472 192.9 625.491 193.176 625.498 193.329C625.527 193.686 625.541 193.904 625.541 193.984Z" fill="#E3E0E0"/>
<path d="M637.628 203.997C637.838 203.997 637.943 204.095 637.943 204.292C637.943 204.481 637.733 204.663 637.313 204.838C636.893 205.013 636.599 205.173 636.432 205.318C636.266 205.457 636.143 205.558 636.063 205.624C635.983 205.697 635.889 205.733 635.78 205.733C635.563 205.733 635.382 205.642 635.237 205.46C635.092 205.278 634.896 204.889 634.65 204.292C634.237 204.765 633.733 205.125 633.139 205.373C632.552 205.613 631.969 205.733 631.389 205.733C630.295 205.733 629.447 205.453 628.846 204.892C628.244 204.332 627.943 203.564 627.943 202.588C627.943 201.613 628.396 200.823 629.302 200.219C630.215 199.608 631.378 199.302 632.791 199.302C633.211 199.302 633.766 199.375 634.454 199.52V198.669C634.454 196.798 633.668 195.862 632.096 195.862C631.262 195.862 630.65 196.248 630.259 197.02C629.918 197.711 629.585 198.057 629.259 198.057C629.02 198.057 628.809 197.988 628.628 197.85C628.454 197.711 628.367 197.537 628.367 197.326C628.367 197.114 628.476 196.881 628.693 196.627C628.911 196.365 629.201 196.128 629.563 195.917C630.418 195.415 631.356 195.164 632.378 195.164C634.19 195.164 635.36 195.757 635.889 196.943C636.085 197.366 636.182 197.882 636.182 198.494V202.851C636.182 203.411 636.237 203.771 636.345 203.932C636.454 204.092 636.606 204.172 636.802 204.172C636.998 204.172 637.157 204.143 637.28 204.084C637.403 204.026 637.519 203.997 637.628 203.997ZM634.454 200.536C633.932 200.237 633.273 200.088 632.476 200.088C631.679 200.088 631.038 200.288 630.552 200.689C630.074 201.089 629.835 201.628 629.835 202.305C629.835 202.974 630.019 203.535 630.389 203.986C630.759 204.43 631.233 204.652 631.813 204.652C633.052 204.652 633.943 204.245 634.487 203.429C634.465 203.225 634.454 203 634.454 202.752V200.536Z" fill="#E3E0E0"/>
<path d="M639.411 205.624C638.932 205.624 638.693 205.489 638.693 205.22C638.693 205.009 638.827 204.903 639.095 204.903L639.639 204.958C639.806 204.958 639.943 204.929 640.052 204.871C640.161 204.805 640.244 204.67 640.302 204.467C640.418 204.095 640.476 203.273 640.476 201.999V193.864C640.476 192.656 640.226 192.015 639.726 191.942C639.363 191.884 639.182 191.764 639.182 191.582C639.182 191.415 639.353 191.298 639.693 191.233C640.034 191.16 640.342 191.073 640.617 190.971C640.892 190.861 641.135 190.76 641.345 190.665C641.555 190.563 641.733 190.476 641.878 190.403C642.03 190.33 642.139 190.294 642.204 190.294C642.371 190.294 642.454 190.377 642.454 190.545C642.454 190.625 642.44 190.709 642.411 190.796C642.258 191.189 642.179 191.688 642.171 192.292C642.164 192.896 642.161 193.391 642.161 193.777V201.999C642.161 203.273 642.204 204.055 642.291 204.346C642.378 204.63 642.476 204.805 642.584 204.871C642.693 204.929 642.831 204.958 642.997 204.958L643.541 204.903C643.809 204.903 643.943 205.009 643.943 205.22C643.943 205.489 643.704 205.624 643.226 205.624C642.95 205.624 642.664 205.595 642.367 205.537C642.07 205.486 641.729 205.46 641.345 205.46C640.961 205.46 640.61 205.486 640.291 205.537C639.979 205.595 639.686 205.624 639.411 205.624Z" fill="#E3E0E0"/>
<path d="M645.4 200.459C645.4 199.688 645.537 198.974 645.813 198.319C646.095 197.657 646.476 197.093 646.954 196.627C647.968 195.651 649.247 195.164 650.791 195.164C651.704 195.193 652.497 195.407 653.171 195.808C653.86 196.208 654.218 196.699 654.247 197.282C654.247 197.595 654.041 197.802 653.628 197.904C653.519 197.926 653.421 197.937 653.334 197.937C653.001 197.937 652.729 197.708 652.519 197.249C652.106 196.383 651.407 195.95 650.421 195.95C649.552 195.95 648.823 196.31 648.236 197.031C647.613 197.795 647.302 198.803 647.302 200.055C647.302 201.446 647.624 202.563 648.269 203.407C648.943 204.296 649.863 204.74 651.03 204.74C651.827 204.74 652.526 204.434 653.128 203.822C653.389 203.56 653.584 203.429 653.715 203.429C653.983 203.429 654.117 203.564 654.117 203.833C654.117 204.095 653.86 204.416 653.345 204.794C652.512 205.42 651.486 205.733 650.269 205.733C648.813 205.733 647.628 205.235 646.715 204.237C645.838 203.269 645.4 202.01 645.4 200.459Z" fill="#E3E0E0"/>
<path d="M666.627 204.019C666.838 204.019 666.943 204.114 666.943 204.303C666.943 204.405 666.896 204.492 666.801 204.565C666.714 204.638 666.577 204.714 666.388 204.794C666.2 204.867 666.051 204.929 665.943 204.98C665.834 205.031 665.732 205.082 665.638 205.133C665.486 205.213 665.319 205.315 665.138 205.438C664.834 205.635 664.624 205.733 664.508 205.733C664.399 205.733 664.298 205.704 664.204 205.646C664.117 205.595 664.026 205.497 663.932 205.351C663.714 205.009 663.598 204.507 663.584 203.844C662.968 204.718 662.178 205.275 661.214 205.515C660.917 205.588 660.57 205.624 660.171 205.624C659.772 205.624 659.359 205.558 658.932 205.427C658.512 205.289 658.149 205.067 657.845 204.761C657.193 204.128 656.867 203.167 656.867 201.879V198.734C656.867 198.035 656.823 197.58 656.736 197.369C656.657 197.158 656.566 197.016 656.465 196.943C656.37 196.871 656.244 196.82 656.084 196.79C655.758 196.718 655.595 196.598 655.595 196.43C655.595 196.248 655.78 196.121 656.149 196.048C656.968 195.881 657.512 195.717 657.78 195.557C658.164 195.338 658.428 195.229 658.573 195.229C658.718 195.229 658.791 195.313 658.791 195.48C658.791 195.56 658.772 195.644 658.736 195.731C658.591 196.124 658.515 196.612 658.508 197.194C658.501 197.777 658.497 198.261 658.497 198.647V201.442C658.497 202.956 658.983 203.881 659.954 204.215C660.243 204.31 660.53 204.357 660.812 204.357C661.095 204.357 661.359 204.325 661.606 204.259C661.859 204.186 662.106 204.077 662.345 203.932C662.859 203.604 663.269 203.124 663.573 202.49L663.606 198.494C663.606 197.875 663.551 197.478 663.443 197.304C663.334 197.122 663.214 197.002 663.084 196.943C662.954 196.885 662.747 196.834 662.464 196.79C662.189 196.747 662.051 196.63 662.051 196.441C662.051 196.274 662.225 196.154 662.573 196.081C662.928 196.008 663.254 195.921 663.551 195.819C663.848 195.709 664.109 195.608 664.334 195.513C664.566 195.418 664.754 195.338 664.899 195.273C665.051 195.2 665.156 195.164 665.214 195.164C665.381 195.164 665.464 195.247 665.464 195.415C665.464 195.495 665.446 195.578 665.41 195.666C665.265 196.059 665.189 196.558 665.182 197.162C665.175 197.766 665.171 198.261 665.171 198.647V202.741C665.171 203.302 665.218 203.659 665.312 203.811C665.457 204.052 665.664 204.172 665.932 204.172L666.627 204.019Z" fill="#E3E0E0"/>
<path d="M668.845 205.624C668.366 205.624 668.127 205.489 668.127 205.22C668.127 205.009 668.261 204.903 668.53 204.903L669.073 204.958C669.24 204.958 669.377 204.929 669.486 204.871C669.595 204.805 669.678 204.67 669.736 204.467C669.852 204.095 669.91 203.273 669.91 201.999V193.864C669.91 192.656 669.66 192.015 669.16 191.942C668.798 191.884 668.616 191.764 668.616 191.582C668.616 191.415 668.787 191.298 669.127 191.233C669.468 191.16 669.776 191.073 670.051 190.971C670.327 190.861 670.569 190.76 670.779 190.665C670.99 190.563 671.167 190.476 671.312 190.403C671.464 190.33 671.573 190.294 671.638 190.294C671.805 190.294 671.888 190.377 671.888 190.545C671.888 190.625 671.874 190.709 671.845 190.796C671.693 191.189 671.613 191.688 671.606 192.292C671.598 192.896 671.595 193.391 671.595 193.777V201.999C671.595 203.273 671.638 204.055 671.725 204.346C671.812 204.63 671.91 204.805 672.019 204.871C672.127 204.929 672.265 204.958 672.432 204.958L672.975 204.903C673.243 204.903 673.377 205.009 673.377 205.22C673.377 205.489 673.138 205.624 672.66 205.624C672.385 205.624 672.098 205.595 671.801 205.537C671.504 205.486 671.164 205.46 670.779 205.46C670.395 205.46 670.044 205.486 669.725 205.537C669.414 205.595 669.12 205.624 668.845 205.624Z" fill="#E3E0E0"/>
<path d="M684.714 203.997C684.924 203.997 685.029 204.095 685.029 204.292C685.029 204.481 684.819 204.663 684.399 204.838C683.978 205.013 683.685 205.173 683.518 205.318C683.352 205.457 683.228 205.558 683.149 205.624C683.069 205.697 682.975 205.733 682.866 205.733C682.649 205.733 682.468 205.642 682.323 205.46C682.178 205.278 681.982 204.889 681.736 204.292C681.323 204.765 680.819 205.125 680.225 205.373C679.638 205.613 679.055 205.733 678.475 205.733C677.381 205.733 676.533 205.453 675.932 204.892C675.33 204.332 675.029 203.564 675.029 202.588C675.029 201.613 675.482 200.823 676.388 200.219C677.301 199.608 678.464 199.302 679.877 199.302C680.297 199.302 680.852 199.375 681.54 199.52V198.669C681.54 196.798 680.754 195.862 679.181 195.862C678.348 195.862 677.736 196.248 677.345 197.02C677.004 197.711 676.671 198.057 676.345 198.057C676.105 198.057 675.895 197.988 675.714 197.85C675.54 197.711 675.453 197.537 675.453 197.326C675.453 197.114 675.562 196.881 675.779 196.627C675.997 196.365 676.287 196.128 676.649 195.917C677.504 195.415 678.442 195.164 679.464 195.164C681.276 195.164 682.446 195.757 682.975 196.943C683.171 197.366 683.268 197.882 683.268 198.494V202.851C683.268 203.411 683.323 203.771 683.431 203.932C683.54 204.092 683.692 204.172 683.888 204.172C684.084 204.172 684.243 204.143 684.366 204.084C684.489 204.026 684.605 203.997 684.714 203.997ZM681.54 200.536C681.018 200.237 680.359 200.088 679.562 200.088C678.765 200.088 678.124 200.288 677.638 200.689C677.16 201.089 676.921 201.628 676.921 202.305C676.921 202.974 677.105 203.535 677.475 203.986C677.845 204.43 678.319 204.652 678.899 204.652C680.138 204.652 681.029 204.245 681.573 203.429C681.551 203.225 681.54 203 681.54 202.752V200.536Z" fill="#E3E0E0"/>
<path d="M692.149 196.245C692.149 196.441 692.033 196.539 691.801 196.539L688.714 196.507V202.556C688.714 203.684 688.986 204.354 689.529 204.565C689.696 204.63 689.891 204.663 690.116 204.663C690.341 204.663 690.544 204.627 690.725 204.554C690.913 204.474 691.08 204.39 691.225 204.303C691.37 204.215 691.493 204.135 691.594 204.063C691.696 203.982 691.79 203.942 691.877 203.942C691.971 203.942 692.054 203.993 692.127 204.095C692.199 204.197 692.236 204.299 692.236 204.401C692.236 204.656 691.913 204.962 691.268 205.318C690.775 205.595 690.156 205.733 689.41 205.733C688.663 205.733 688.08 205.467 687.66 204.936C687.239 204.397 687.029 203.655 687.029 202.709V196.474H686.366C685.844 196.474 685.584 196.339 685.584 196.07C685.584 195.873 685.728 195.739 686.018 195.666C686.308 195.593 686.558 195.466 686.768 195.284C686.978 195.094 687.149 194.883 687.279 194.65C687.417 194.41 687.526 194.163 687.605 193.908C687.685 193.653 687.757 193.42 687.823 193.209C687.982 192.729 688.163 192.488 688.366 192.488C688.598 192.488 688.714 192.696 688.714 193.111V195.578L691.768 195.513C691.92 195.513 692.04 195.695 692.127 196.059C692.141 196.139 692.149 196.201 692.149 196.245Z" fill="#E3E0E0"/>
<path d="M693.453 200.612C693.453 199.906 693.58 199.222 693.833 198.559C694.087 197.897 694.446 197.315 694.909 196.812C695.924 195.713 697.188 195.164 698.703 195.164C700.384 195.164 701.677 195.669 702.583 196.681C703.402 197.598 703.811 198.789 703.811 200.252C703.811 201.73 703.322 203.007 702.344 204.084C701.344 205.184 700.083 205.733 698.562 205.733C696.88 205.733 695.591 205.227 694.692 204.215C693.866 203.298 693.453 202.097 693.453 200.612ZM695.29 200.154C695.29 200.867 695.388 201.533 695.583 202.152C695.779 202.77 696.047 203.284 696.388 203.691C697.062 204.521 697.913 204.936 698.942 204.936C699.855 204.936 700.598 204.572 701.17 203.844C701.764 203.087 702.061 202.112 702.061 200.918C702.061 199.338 701.699 198.101 700.974 197.205C700.293 196.383 699.438 195.972 698.409 195.972C697.496 195.972 696.754 196.336 696.181 197.063C695.587 197.821 695.29 198.851 695.29 200.154Z" fill="#E3E0E0"/>
<path d="M705.855 205.624C705.369 205.624 705.127 205.489 705.127 205.22C705.127 205.009 705.261 204.903 705.529 204.903L706.072 204.958C706.239 204.958 706.377 204.929 706.485 204.871C706.594 204.805 706.677 204.67 706.735 204.467C706.851 204.095 706.909 203.273 706.909 201.999V198.734C706.909 197.992 706.862 197.529 706.768 197.347C706.681 197.158 706.572 197.031 706.442 196.965C706.319 196.892 706.112 196.834 705.822 196.79C705.54 196.747 705.398 196.634 705.398 196.452C705.398 196.285 705.583 196.164 705.953 196.092C706.815 195.91 707.409 195.728 707.735 195.546C708.177 195.291 708.478 195.164 708.637 195.164C708.804 195.164 708.887 195.247 708.887 195.415C708.887 195.495 708.869 195.578 708.833 195.666C708.804 195.753 708.771 195.859 708.735 195.982C708.677 196.23 708.634 196.696 708.605 197.38C709.235 196.317 709.996 195.655 710.887 195.393C711.148 195.313 711.438 195.273 711.757 195.273C712.083 195.273 712.369 195.389 712.616 195.622C712.869 195.855 712.996 196.103 712.996 196.365C712.996 196.627 712.967 196.82 712.909 196.943C712.851 197.067 712.779 197.173 712.692 197.26C712.503 197.449 712.333 197.544 712.181 197.544C712.036 197.544 711.924 197.507 711.844 197.435C711.764 197.355 711.674 197.213 711.572 197.009C711.391 196.645 711.188 196.463 710.963 196.463C710.739 196.463 710.525 196.514 710.322 196.616C710.119 196.71 709.916 196.856 709.713 197.053C709.271 197.467 708.898 198.032 708.594 198.745V201.999C708.594 203.382 708.63 204.197 708.703 204.445C708.782 204.685 708.876 204.831 708.985 204.881C709.101 204.925 709.257 204.947 709.453 204.947L710.42 204.86C710.565 204.86 710.681 204.896 710.768 204.969C710.855 205.034 710.898 205.118 710.898 205.22C710.898 205.489 710.634 205.624 710.105 205.624L707.811 205.46C707.442 205.46 707.09 205.486 706.757 205.537C706.431 205.595 706.13 205.624 705.855 205.624Z" fill="#E3E0E0"/>
<path d="M442.21 523C442.137 523 442.074 522.978 442.023 522.934C441.979 522.883 441.957 522.82 441.957 522.747V515.564C441.957 515.483 441.979 515.421 442.023 515.377C442.074 515.326 442.137 515.3 442.21 515.3H445.004C445.833 515.3 446.485 515.502 446.962 515.905C447.439 516.308 447.677 516.891 447.677 517.654C447.677 518.417 447.439 519 446.962 519.403C446.493 519.799 445.84 519.997 445.004 519.997H443.057V522.747C443.057 522.82 443.031 522.883 442.98 522.934C442.929 522.978 442.866 523 442.793 523H442.21ZM444.949 519.073C445.484 519.073 445.888 518.952 446.159 518.71C446.438 518.468 446.577 518.116 446.577 517.654C446.577 517.192 446.441 516.84 446.17 516.598C445.899 516.349 445.492 516.224 444.949 516.224H443.046V519.073H444.949ZM451.139 523.11C450.333 523.11 449.706 522.883 449.258 522.428C448.818 521.973 448.584 521.368 448.554 520.613L448.543 520.14L448.554 519.667C448.584 518.919 448.822 518.318 449.269 517.863C449.717 517.401 450.34 517.17 451.139 517.17C451.939 517.17 452.562 517.401 453.009 517.863C453.457 518.318 453.695 518.919 453.724 519.667C453.732 519.748 453.735 519.905 453.735 520.14C453.735 520.375 453.732 520.532 453.724 520.613C453.695 521.368 453.457 521.973 453.009 522.428C452.569 522.883 451.946 523.11 451.139 523.11ZM451.139 522.263C451.601 522.263 451.964 522.116 452.228 521.823C452.5 521.53 452.646 521.108 452.668 520.558C452.676 520.485 452.679 520.345 452.679 520.14C452.679 519.935 452.676 519.795 452.668 519.722C452.646 519.172 452.5 518.75 452.228 518.457C451.964 518.164 451.601 518.017 451.139 518.017C450.677 518.017 450.311 518.164 450.039 518.457C449.768 518.75 449.625 519.172 449.61 519.722L449.599 520.14L449.61 520.558C449.625 521.108 449.768 521.53 450.039 521.823C450.311 522.116 450.677 522.263 451.139 522.263ZM456.48 523C456.385 523 456.312 522.978 456.26 522.934C456.209 522.89 456.165 522.82 456.128 522.725L454.566 517.621L454.544 517.511C454.544 517.445 454.566 517.39 454.61 517.346C454.662 517.302 454.717 517.28 454.775 517.28H455.259C455.333 517.28 455.391 517.302 455.435 517.346C455.487 517.383 455.52 517.423 455.534 517.467L456.755 521.614L458.064 517.511C458.079 517.452 458.112 517.401 458.163 517.357C458.215 517.306 458.284 517.28 458.372 517.28H458.746C458.834 517.28 458.904 517.306 458.955 517.357C459.007 517.401 459.04 517.452 459.054 517.511L460.363 521.614L461.584 517.467C461.592 517.43 461.617 517.39 461.661 517.346C461.713 517.302 461.775 517.28 461.848 517.28H462.343C462.402 517.28 462.453 517.302 462.497 517.346C462.541 517.39 462.563 517.445 462.563 517.511L462.541 517.621L460.99 522.725C460.954 522.82 460.91 522.89 460.858 522.934C460.807 522.978 460.73 523 460.627 523H460.198C460 523 459.879 522.908 459.835 522.725L458.559 518.787L457.283 522.725C457.225 522.908 457.1 523 456.909 523H456.48ZM465.919 523.11C465.164 523.11 464.559 522.879 464.104 522.417C463.657 521.948 463.411 521.31 463.367 520.503L463.356 520.129L463.367 519.766C463.419 518.974 463.668 518.343 464.115 517.874C464.57 517.405 465.168 517.17 465.908 517.17C466.722 517.17 467.353 517.43 467.8 517.951C468.248 518.464 468.471 519.161 468.471 520.041V520.228C468.471 520.301 468.446 520.364 468.394 520.415C468.35 520.459 468.292 520.481 468.218 520.481H464.412V520.58C464.434 521.057 464.577 521.464 464.841 521.801C465.113 522.131 465.468 522.296 465.908 522.296C466.246 522.296 466.521 522.23 466.733 522.098C466.953 521.959 467.115 521.816 467.217 521.669C467.283 521.581 467.331 521.53 467.36 521.515C467.397 521.493 467.459 521.482 467.547 521.482H468.086C468.152 521.482 468.207 521.5 468.251 521.537C468.295 521.574 468.317 521.625 468.317 521.691C468.317 521.852 468.215 522.047 468.009 522.274C467.811 522.501 467.529 522.699 467.162 522.868C466.803 523.029 466.389 523.11 465.919 523.11ZM467.426 519.722V519.689C467.426 519.183 467.287 518.772 467.008 518.457C466.737 518.134 466.37 517.973 465.908 517.973C465.446 517.973 465.08 518.134 464.808 518.457C464.544 518.772 464.412 519.183 464.412 519.689V519.722H467.426ZM470.04 523C469.966 523 469.904 522.978 469.853 522.934C469.809 522.883 469.787 522.82 469.787 522.747V517.544C469.787 517.471 469.809 517.408 469.853 517.357C469.904 517.306 469.966 517.28 470.04 517.28H470.546C470.619 517.28 470.681 517.306 470.733 517.357C470.784 517.408 470.81 517.471 470.81 517.544V518.028C471.11 517.529 471.624 517.28 472.35 517.28H472.779C472.852 517.28 472.911 517.306 472.955 517.357C473.006 517.401 473.032 517.46 473.032 517.533V517.984C473.032 518.057 473.006 518.116 472.955 518.16C472.911 518.204 472.852 518.226 472.779 518.226H472.119C471.723 518.226 471.411 518.343 471.184 518.578C470.956 518.805 470.843 519.117 470.843 519.513V522.747C470.843 522.82 470.817 522.883 470.766 522.934C470.714 522.978 470.652 523 470.579 523H470.04ZM476.146 523.11C475.391 523.11 474.786 522.879 474.331 522.417C473.884 521.948 473.638 521.31 473.594 520.503L473.583 520.129L473.594 519.766C473.645 518.974 473.895 518.343 474.342 517.874C474.797 517.405 475.394 517.17 476.135 517.17C476.949 517.17 477.58 517.43 478.027 517.951C478.474 518.464 478.698 519.161 478.698 520.041V520.228C478.698 520.301 478.672 520.364 478.621 520.415C478.577 520.459 478.518 520.481 478.445 520.481H474.639V520.58C474.661 521.057 474.804 521.464 475.068 521.801C475.339 522.131 475.695 522.296 476.135 522.296C476.472 522.296 476.747 522.23 476.96 522.098C477.18 521.959 477.341 521.816 477.444 521.669C477.51 521.581 477.558 521.53 477.587 521.515C477.624 521.493 477.686 521.482 477.774 521.482H478.313C478.379 521.482 478.434 521.5 478.478 521.537C478.522 521.574 478.544 521.625 478.544 521.691C478.544 521.852 478.441 522.047 478.236 522.274C478.038 522.501 477.756 522.699 477.389 522.868C477.03 523.029 476.615 523.11 476.146 523.11ZM477.653 519.722V519.689C477.653 519.183 477.514 518.772 477.235 518.457C476.964 518.134 476.597 517.973 476.135 517.973C475.673 517.973 475.306 518.134 475.035 518.457C474.771 518.772 474.639 519.183 474.639 519.689V519.722H477.653ZM482.103 523.11C481.341 523.11 480.765 522.861 480.376 522.362C479.988 521.863 479.782 521.233 479.76 520.47L479.749 520.14L479.76 519.81C479.782 519.055 479.988 518.428 480.376 517.929C480.765 517.423 481.341 517.17 482.103 517.17C482.859 517.17 483.453 517.438 483.885 517.973V515.443C483.885 515.37 483.907 515.311 483.951 515.267C484.003 515.216 484.065 515.19 484.138 515.19H484.666C484.74 515.19 484.798 515.216 484.842 515.267C484.894 515.311 484.919 515.37 484.919 515.443V522.747C484.919 522.82 484.894 522.883 484.842 522.934C484.798 522.978 484.74 523 484.666 523H484.171C484.098 523 484.036 522.978 483.984 522.934C483.94 522.883 483.918 522.82 483.918 522.747V522.285C483.493 522.835 482.888 523.11 482.103 523.11ZM482.334 522.219C482.84 522.219 483.218 522.054 483.467 521.724C483.724 521.387 483.863 520.987 483.885 520.525C483.893 520.444 483.896 520.305 483.896 520.107C483.896 519.902 483.893 519.759 483.885 519.678C483.871 519.245 483.731 518.868 483.467 518.545C483.203 518.222 482.826 518.061 482.334 518.061C481.814 518.061 481.432 518.222 481.19 518.545C480.956 518.868 480.827 519.293 480.805 519.821L480.794 520.14C480.794 521.526 481.308 522.219 482.334 522.219ZM492.079 523.11C491.287 523.11 490.685 522.835 490.275 522.285V522.747C490.275 522.82 490.249 522.883 490.198 522.934C490.154 522.978 490.095 523 490.022 523H489.516C489.442 523 489.38 522.978 489.329 522.934C489.285 522.883 489.263 522.82 489.263 522.747V515.443C489.263 515.37 489.285 515.311 489.329 515.267C489.38 515.216 489.442 515.19 489.516 515.19H490.054C490.128 515.19 490.187 515.216 490.231 515.267C490.275 515.311 490.297 515.37 490.297 515.443V517.973C490.729 517.438 491.323 517.17 492.079 517.17C492.841 517.17 493.417 517.423 493.806 517.929C494.194 518.428 494.403 519.055 494.433 519.81C494.44 519.891 494.444 520.001 494.444 520.14C494.444 520.279 494.44 520.389 494.433 520.47C494.403 521.233 494.194 521.863 493.806 522.362C493.417 522.861 492.841 523.11 492.079 523.11ZM491.848 522.219C492.368 522.219 492.746 522.058 492.981 521.735C493.223 521.412 493.355 520.987 493.377 520.459C493.384 520.386 493.388 520.279 493.388 520.14C493.388 518.754 492.874 518.061 491.848 518.061C491.356 518.061 490.979 518.222 490.715 518.545C490.451 518.868 490.311 519.245 490.297 519.678L490.286 520.107L490.297 520.525C490.319 520.987 490.454 521.387 490.704 521.724C490.96 522.054 491.342 522.219 491.848 522.219ZM496.58 525.09C496.521 525.09 496.47 525.068 496.426 525.024C496.382 524.98 496.36 524.929 496.36 524.87C496.36 524.819 496.378 524.753 496.415 524.672L497.262 522.659L495.161 517.698C495.124 517.603 495.106 517.54 495.106 517.511C495.106 517.445 495.128 517.39 495.172 517.346C495.216 517.302 495.271 517.28 495.337 517.28H495.876C495.993 517.28 496.081 517.342 496.14 517.467L497.812 521.471L499.528 517.467C499.586 517.342 499.678 517.28 499.803 517.28H500.32C500.386 517.28 500.441 517.302 500.485 517.346C500.529 517.39 500.551 517.441 500.551 517.5C500.551 517.522 500.532 517.588 500.496 517.698L497.372 524.903C497.313 525.028 497.221 525.09 497.097 525.09H496.58ZM504.252 519.15C504.179 519.15 504.117 519.128 504.065 519.084C504.021 519.033 503.999 518.97 503.999 518.897V518.127C503.999 518.054 504.021 517.995 504.065 517.951C504.117 517.9 504.179 517.874 504.252 517.874H505.044C505.118 517.874 505.176 517.9 505.22 517.951C505.272 517.995 505.297 518.054 505.297 518.127V518.897C505.297 518.97 505.272 519.033 505.22 519.084C505.176 519.128 505.118 519.15 505.044 519.15H504.252ZM504.252 523C504.179 523 504.117 522.978 504.065 522.934C504.021 522.883 503.999 522.82 503.999 522.747V521.977C503.999 521.904 504.021 521.845 504.065 521.801C504.117 521.75 504.179 521.724 504.252 521.724H505.044C505.118 521.724 505.176 521.75 505.22 521.801C505.272 521.845 505.297 521.904 505.297 521.977V522.747C505.297 522.82 505.272 522.883 505.22 522.934C505.176 522.978 505.118 523 505.044 523H504.252ZM508.901 523C508.842 523 508.791 522.978 508.747 522.934C508.703 522.89 508.681 522.839 508.681 522.78C508.681 522.721 508.685 522.681 508.692 522.659L511.42 515.542C511.479 515.381 511.596 515.3 511.772 515.3H512.52C512.696 515.3 512.813 515.381 512.872 515.542L515.589 522.659L515.611 522.78C515.611 522.839 515.589 522.89 515.545 522.934C515.501 522.978 515.45 523 515.391 523H514.83C514.749 523 514.687 522.982 514.643 522.945C514.599 522.901 514.57 522.857 514.555 522.813L513.95 521.251H510.342L509.737 522.813C509.722 522.857 509.689 522.901 509.638 522.945C509.594 522.982 509.535 523 509.462 523H508.901ZM513.631 520.305L512.146 516.4L510.661 520.305H513.631ZM519.471 523.11C518.679 523.11 518.078 522.835 517.667 522.285V522.747C517.667 522.82 517.641 522.883 517.59 522.934C517.546 522.978 517.487 523 517.414 523H516.908C516.835 523 516.772 522.978 516.721 522.934C516.677 522.883 516.655 522.82 516.655 522.747V515.443C516.655 515.37 516.677 515.311 516.721 515.267C516.772 515.216 516.835 515.19 516.908 515.19H517.447C517.52 515.19 517.579 515.216 517.623 515.267C517.667 515.311 517.689 515.37 517.689 515.443V517.973C518.122 517.438 518.716 517.17 519.471 517.17C520.234 517.17 520.809 517.423 521.198 517.929C521.587 518.428 521.796 519.055 521.825 519.81C521.832 519.891 521.836 520.001 521.836 520.14C521.836 520.279 521.832 520.389 521.825 520.47C521.796 521.233 521.587 521.863 521.198 522.362C520.809 522.861 520.234 523.11 519.471 523.11ZM519.24 522.219C519.761 522.219 520.138 522.058 520.373 521.735C520.615 521.412 520.747 520.987 520.769 520.459C520.776 520.386 520.78 520.279 520.78 520.14C520.78 518.754 520.267 518.061 519.24 518.061C518.749 518.061 518.371 518.222 518.107 518.545C517.843 518.868 517.704 519.245 517.689 519.678L517.678 520.107L517.689 520.525C517.711 520.987 517.847 521.387 518.096 521.724C518.353 522.054 518.734 522.219 519.24 522.219ZM525.276 523.11C524.513 523.11 523.938 522.861 523.549 522.362C523.16 521.863 522.955 521.233 522.933 520.47L522.922 520.14L522.933 519.81C522.955 519.055 523.16 518.428 523.549 517.929C523.938 517.423 524.513 517.17 525.276 517.17C526.031 517.17 526.625 517.438 527.058 517.973V515.443C527.058 515.37 527.08 515.311 527.124 515.267C527.175 515.216 527.238 515.19 527.311 515.19H527.839C527.912 515.19 527.971 515.216 528.015 515.267C528.066 515.311 528.092 515.37 528.092 515.443V522.747C528.092 522.82 528.066 522.883 528.015 522.934C527.971 522.978 527.912 523 527.839 523H527.344C527.271 523 527.208 522.978 527.157 522.934C527.113 522.883 527.091 522.82 527.091 522.747V522.285C526.666 522.835 526.061 523.11 525.276 523.11ZM525.507 522.219C526.013 522.219 526.391 522.054 526.64 521.724C526.897 521.387 527.036 520.987 527.058 520.525C527.065 520.444 527.069 520.305 527.069 520.107C527.069 519.902 527.065 519.759 527.058 519.678C527.043 519.245 526.904 518.868 526.64 518.545C526.376 518.222 525.998 518.061 525.507 518.061C524.986 518.061 524.605 518.222 524.363 518.545C524.128 518.868 524 519.293 523.978 519.821L523.967 520.14C523.967 521.526 524.48 522.219 525.507 522.219ZM531.862 523.11C531.165 523.11 530.626 522.886 530.245 522.439C529.864 521.984 529.673 521.383 529.673 520.635V517.533C529.673 517.46 529.695 517.401 529.739 517.357C529.79 517.306 529.853 517.28 529.926 517.28H530.476C530.549 517.28 530.608 517.306 530.652 517.357C530.703 517.401 530.729 517.46 530.729 517.533V520.58C530.729 521.673 531.206 522.219 532.159 522.219C532.621 522.219 532.988 522.076 533.259 521.79C533.53 521.497 533.666 521.093 533.666 520.58V517.533C533.666 517.46 533.688 517.401 533.732 517.357C533.783 517.306 533.846 517.28 533.919 517.28H534.469C534.542 517.28 534.601 517.306 534.645 517.357C534.689 517.401 534.711 517.46 534.711 517.533V522.747C534.711 522.82 534.689 522.883 534.645 522.934C534.601 522.978 534.542 523 534.469 523H533.952C533.879 523 533.816 522.978 533.765 522.934C533.721 522.883 533.699 522.82 533.699 522.747V522.263C533.494 522.542 533.244 522.754 532.951 522.901C532.658 523.04 532.295 523.11 531.862 523.11ZM536.609 523C536.536 523 536.474 522.978 536.422 522.934C536.378 522.883 536.356 522.82 536.356 522.747V515.443C536.356 515.37 536.378 515.311 536.422 515.267C536.474 515.216 536.536 515.19 536.609 515.19H537.126C537.2 515.19 537.258 515.216 537.302 515.267C537.354 515.311 537.379 515.37 537.379 515.443V522.747C537.379 522.82 537.354 522.883 537.302 522.934C537.258 522.978 537.2 523 537.126 523H536.609ZM539.273 523C539.2 523 539.137 522.978 539.086 522.934C539.042 522.883 539.02 522.82 539.02 522.747V517.544C539.02 517.471 539.042 517.408 539.086 517.357C539.137 517.306 539.2 517.28 539.273 517.28H539.779C539.852 517.28 539.915 517.306 539.966 517.357C540.017 517.408 540.043 517.471 540.043 517.544V518.028C540.344 517.529 540.857 517.28 541.583 517.28H542.012C542.085 517.28 542.144 517.306 542.188 517.357C542.239 517.401 542.265 517.46 542.265 517.533V517.984C542.265 518.057 542.239 518.116 542.188 518.16C542.144 518.204 542.085 518.226 542.012 518.226H541.352C540.956 518.226 540.644 518.343 540.417 518.578C540.19 518.805 540.076 519.117 540.076 519.513V522.747C540.076 522.82 540.05 522.883 539.999 522.934C539.948 522.978 539.885 523 539.812 523H539.273ZM544.708 523.11C544.348 523.11 544.015 523.037 543.707 522.89C543.399 522.743 543.153 522.545 542.97 522.296C542.794 522.039 542.706 521.757 542.706 521.449C542.706 520.965 542.904 520.569 543.3 520.261C543.703 519.946 544.246 519.74 544.928 519.645L546.567 519.414V519.095C546.567 518.347 546.138 517.973 545.28 517.973C544.957 517.973 544.693 518.043 544.488 518.182C544.282 518.314 544.128 518.472 544.026 518.655C544.004 518.721 543.974 518.769 543.938 518.798C543.908 518.827 543.864 518.842 543.806 518.842H543.333C543.267 518.842 543.208 518.82 543.157 518.776C543.113 518.725 543.091 518.666 543.091 518.6C543.098 518.424 543.179 518.226 543.333 518.006C543.494 517.779 543.74 517.584 544.07 517.423C544.4 517.254 544.807 517.17 545.291 517.17C546.112 517.17 546.702 517.364 547.062 517.753C547.421 518.134 547.601 518.611 547.601 519.183V522.747C547.601 522.82 547.575 522.883 547.524 522.934C547.48 522.978 547.421 523 547.348 523H546.842C546.768 523 546.706 522.978 546.655 522.934C546.611 522.883 546.589 522.82 546.589 522.747V522.274C546.427 522.509 546.193 522.707 545.885 522.868C545.577 523.029 545.184 523.11 544.708 523.11ZM544.939 522.285C545.415 522.285 545.804 522.131 546.105 521.823C546.413 521.508 546.567 521.057 546.567 520.47V520.162L545.291 520.349C544.77 520.422 544.378 520.547 544.114 520.723C543.85 520.892 543.718 521.108 543.718 521.372C543.718 521.665 543.839 521.893 544.081 522.054C544.323 522.208 544.609 522.285 544.939 522.285ZM549.446 523C549.373 523 549.31 522.978 549.259 522.934C549.215 522.883 549.193 522.82 549.193 522.747V515.443C549.193 515.37 549.215 515.311 549.259 515.267C549.31 515.216 549.373 515.19 549.446 515.19H549.996C550.069 515.19 550.128 515.216 550.172 515.267C550.223 515.311 550.249 515.37 550.249 515.443V518.006C550.462 517.735 550.711 517.529 550.997 517.39C551.283 517.243 551.639 517.17 552.064 517.17C552.768 517.17 553.314 517.397 553.703 517.852C554.099 518.299 554.297 518.897 554.297 519.645V522.747C554.297 522.82 554.271 522.883 554.22 522.934C554.176 522.978 554.117 523 554.044 523H553.494C553.421 523 553.358 522.978 553.307 522.934C553.263 522.883 553.241 522.82 553.241 522.747V519.7C553.241 519.179 553.113 518.776 552.856 518.49C552.607 518.204 552.244 518.061 551.767 518.061C551.305 518.061 550.935 518.208 550.656 518.501C550.385 518.787 550.249 519.187 550.249 519.7V522.747C550.249 522.82 550.223 522.883 550.172 522.934C550.128 522.978 550.069 523 549.996 523H549.446ZM556.138 523C556.065 523 556.003 522.978 555.951 522.934C555.907 522.883 555.885 522.82 555.885 522.747V517.533C555.885 517.46 555.907 517.401 555.951 517.357C556.003 517.306 556.065 517.28 556.138 517.28H556.633C556.707 517.28 556.765 517.306 556.809 517.357C556.861 517.401 556.886 517.46 556.886 517.533V517.918C557.268 517.419 557.799 517.17 558.481 517.17C559.295 517.17 559.871 517.507 560.208 518.182C560.384 517.874 560.634 517.628 560.956 517.445C561.279 517.262 561.642 517.17 562.045 517.17C562.647 517.17 563.138 517.375 563.519 517.786C563.901 518.197 564.091 518.791 564.091 519.568V522.747C564.091 522.82 564.066 522.883 564.014 522.934C563.97 522.978 563.912 523 563.838 523H563.321C563.248 523 563.186 522.978 563.134 522.934C563.09 522.883 563.068 522.82 563.068 522.747V519.667C563.068 519.095 562.947 518.684 562.705 518.435C562.471 518.186 562.159 518.061 561.77 518.061C561.426 518.061 561.129 518.189 560.879 518.446C560.63 518.695 560.505 519.102 560.505 519.667V522.747C560.505 522.82 560.48 522.883 560.428 522.934C560.384 522.978 560.326 523 560.252 523H559.735C559.662 523 559.6 522.978 559.548 522.934C559.504 522.883 559.482 522.82 559.482 522.747V519.667C559.482 519.095 559.358 518.684 559.108 518.435C558.866 518.186 558.558 518.061 558.184 518.061C557.84 518.061 557.543 518.189 557.293 518.446C557.044 518.695 556.919 519.099 556.919 519.656V522.747C556.919 522.82 556.894 522.883 556.842 522.934C556.798 522.978 556.74 523 556.666 523H556.138ZM567.256 523.11C566.896 523.11 566.563 523.037 566.255 522.89C565.947 522.743 565.701 522.545 565.518 522.296C565.342 522.039 565.254 521.757 565.254 521.449C565.254 520.965 565.452 520.569 565.848 520.261C566.251 519.946 566.794 519.74 567.476 519.645L569.115 519.414V519.095C569.115 518.347 568.686 517.973 567.828 517.973C567.505 517.973 567.241 518.043 567.036 518.182C566.83 518.314 566.676 518.472 566.574 518.655C566.552 518.721 566.522 518.769 566.486 518.798C566.456 518.827 566.412 518.842 566.354 518.842H565.881C565.815 518.842 565.756 518.82 565.705 518.776C565.661 518.725 565.639 518.666 565.639 518.6C565.646 518.424 565.727 518.226 565.881 518.006C566.042 517.779 566.288 517.584 566.618 517.423C566.948 517.254 567.355 517.17 567.839 517.17C568.66 517.17 569.25 517.364 569.61 517.753C569.969 518.134 570.149 518.611 570.149 519.183V522.747C570.149 522.82 570.123 522.883 570.072 522.934C570.028 522.978 569.969 523 569.896 523H569.39C569.316 523 569.254 522.978 569.203 522.934C569.159 522.883 569.137 522.82 569.137 522.747V522.274C568.975 522.509 568.741 522.707 568.433 522.868C568.125 523.029 567.732 523.11 567.256 523.11ZM567.487 522.285C567.963 522.285 568.352 522.131 568.653 521.823C568.961 521.508 569.115 521.057 569.115 520.47V520.162L567.839 520.349C567.318 520.422 566.926 520.547 566.662 520.723C566.398 520.892 566.266 521.108 566.266 521.372C566.266 521.665 566.387 521.893 566.629 522.054C566.871 522.208 567.157 522.285 567.487 522.285ZM571.983 523C571.91 523 571.847 522.978 571.796 522.934C571.752 522.883 571.73 522.82 571.73 522.747V517.533C571.73 517.46 571.752 517.401 571.796 517.357C571.847 517.306 571.91 517.28 571.983 517.28H572.5C572.573 517.28 572.632 517.306 572.676 517.357C572.727 517.401 572.753 517.46 572.753 517.533V518.017C572.966 517.746 573.215 517.537 573.501 517.39C573.794 517.243 574.157 517.17 574.59 517.17C575.294 517.17 575.84 517.397 576.229 517.852C576.625 518.299 576.823 518.897 576.823 519.645V522.747C576.823 522.82 576.797 522.883 576.746 522.934C576.702 522.978 576.643 523 576.57 523H576.02C575.947 523 575.884 522.978 575.833 522.934C575.789 522.883 575.767 522.82 575.767 522.747V519.7C575.767 519.179 575.639 518.776 575.382 518.49C575.133 518.204 574.77 518.061 574.293 518.061C573.831 518.061 573.464 518.208 573.193 518.501C572.922 518.787 572.786 519.187 572.786 519.7V522.747C572.786 522.82 572.76 522.883 572.709 522.934C572.665 522.978 572.606 523 572.533 523H571.983ZM580.433 523C580.374 523 580.323 522.978 580.279 522.934C580.235 522.89 580.213 522.839 580.213 522.78C580.213 522.721 580.217 522.681 580.224 522.659L582.952 515.542C583.011 515.381 583.128 515.3 583.304 515.3H584.052C584.228 515.3 584.345 515.381 584.404 515.542L587.121 522.659L587.143 522.78C587.143 522.839 587.121 522.89 587.077 522.934C587.033 522.978 586.982 523 586.923 523H586.362C586.281 523 586.219 522.982 586.175 522.945C586.131 522.901 586.102 522.857 586.087 522.813L585.482 521.251H581.874L581.269 522.813C581.254 522.857 581.221 522.901 581.17 522.945C581.126 522.982 581.067 523 580.994 523H580.433ZM585.163 520.305L583.678 516.4L582.193 520.305H585.163ZM588.44 523C588.367 523 588.305 522.978 588.253 522.934C588.209 522.883 588.187 522.82 588.187 522.747V515.443C588.187 515.37 588.209 515.311 588.253 515.267C588.305 515.216 588.367 515.19 588.44 515.19H588.957C589.031 515.19 589.089 515.216 589.133 515.267C589.185 515.311 589.21 515.37 589.21 515.443V522.747C589.21 522.82 589.185 522.883 589.133 522.934C589.089 522.978 589.031 523 588.957 523H588.44ZM591.104 523C591.031 523 590.968 522.978 590.917 522.934C590.873 522.883 590.851 522.82 590.851 522.747V517.533C590.851 517.46 590.873 517.401 590.917 517.357C590.968 517.306 591.031 517.28 591.104 517.28H591.599C591.672 517.28 591.731 517.306 591.775 517.357C591.826 517.401 591.852 517.46 591.852 517.533V517.918C592.233 517.419 592.765 517.17 593.447 517.17C594.261 517.17 594.837 517.507 595.174 518.182C595.35 517.874 595.599 517.628 595.922 517.445C596.245 517.262 596.608 517.17 597.011 517.17C597.612 517.17 598.104 517.375 598.485 517.786C598.866 518.197 599.057 518.791 599.057 519.568V522.747C599.057 522.82 599.031 522.883 598.98 522.934C598.936 522.978 598.877 523 598.804 523H598.287C598.214 523 598.151 522.978 598.1 522.934C598.056 522.883 598.034 522.82 598.034 522.747V519.667C598.034 519.095 597.913 518.684 597.671 518.435C597.436 518.186 597.125 518.061 596.736 518.061C596.391 518.061 596.094 518.189 595.845 518.446C595.596 518.695 595.471 519.102 595.471 519.667V522.747C595.471 522.82 595.445 522.883 595.394 522.934C595.35 522.978 595.291 523 595.218 523H594.701C594.628 523 594.565 522.978 594.514 522.934C594.47 522.883 594.448 522.82 594.448 522.747V519.667C594.448 519.095 594.323 518.684 594.074 518.435C593.832 518.186 593.524 518.061 593.15 518.061C592.805 518.061 592.508 518.189 592.259 518.446C592.01 518.695 591.885 519.099 591.885 519.656V522.747C591.885 522.82 591.859 522.883 591.808 522.934C591.764 522.978 591.705 523 591.632 523H591.104ZM602.222 523.11C601.862 523.11 601.529 523.037 601.221 522.89C600.913 522.743 600.667 522.545 600.484 522.296C600.308 522.039 600.22 521.757 600.22 521.449C600.22 520.965 600.418 520.569 600.814 520.261C601.217 519.946 601.76 519.74 602.442 519.645L604.081 519.414V519.095C604.081 518.347 603.652 517.973 602.794 517.973C602.471 517.973 602.207 518.043 602.002 518.182C601.796 518.314 601.642 518.472 601.54 518.655C601.518 518.721 601.488 518.769 601.452 518.798C601.422 518.827 601.378 518.842 601.32 518.842H600.847C600.781 518.842 600.722 518.82 600.671 518.776C600.627 518.725 600.605 518.666 600.605 518.6C600.612 518.424 600.693 518.226 600.847 518.006C601.008 517.779 601.254 517.584 601.584 517.423C601.914 517.254 602.321 517.17 602.805 517.17C603.626 517.17 604.216 517.364 604.576 517.753C604.935 518.134 605.115 518.611 605.115 519.183V522.747C605.115 522.82 605.089 522.883 605.038 522.934C604.994 522.978 604.935 523 604.862 523H604.356C604.282 523 604.22 522.978 604.169 522.934C604.125 522.883 604.103 522.82 604.103 522.747V522.274C603.941 522.509 603.707 522.707 603.399 522.868C603.091 523.029 602.698 523.11 602.222 523.11ZM602.453 522.285C602.929 522.285 603.318 522.131 603.619 521.823C603.927 521.508 604.081 521.057 604.081 520.47V520.162L602.805 520.349C602.284 520.422 601.892 520.547 601.628 520.723C601.364 520.892 601.232 521.108 601.232 521.372C601.232 521.665 601.353 521.893 601.595 522.054C601.837 522.208 602.123 522.285 602.453 522.285ZM606.971 516.213C606.898 516.213 606.835 516.191 606.784 516.147C606.74 516.096 606.718 516.033 606.718 515.96V515.366C606.718 515.293 606.74 515.23 606.784 515.179C606.835 515.128 606.898 515.102 606.971 515.102H607.675C607.748 515.102 607.811 515.128 607.862 515.179C607.913 515.23 607.939 515.293 607.939 515.366V515.96C607.939 516.033 607.913 516.096 607.862 516.147C607.811 516.191 607.748 516.213 607.675 516.213H606.971ZM605.761 525.09C605.688 525.09 605.629 525.064 605.585 525.013C605.534 524.969 605.508 524.91 605.508 524.837V524.463C605.508 524.39 605.534 524.327 605.585 524.276C605.629 524.232 605.688 524.21 605.761 524.21H605.915C606.274 524.21 606.513 524.118 606.63 523.935C606.747 523.752 606.806 523.48 606.806 523.121V517.533C606.806 517.46 606.828 517.401 606.872 517.357C606.923 517.306 606.986 517.28 607.059 517.28H607.598C607.671 517.28 607.73 517.306 607.774 517.357C607.825 517.401 607.851 517.46 607.851 517.533V523.132C607.851 524.437 607.224 525.09 605.97 525.09H605.761ZM611.084 523.11C610.724 523.11 610.391 523.037 610.083 522.89C609.775 522.743 609.529 522.545 609.346 522.296C609.17 522.039 609.082 521.757 609.082 521.449C609.082 520.965 609.28 520.569 609.676 520.261C610.079 519.946 610.622 519.74 611.304 519.645L612.943 519.414V519.095C612.943 518.347 612.514 517.973 611.656 517.973C611.333 517.973 611.069 518.043 610.864 518.182C610.658 518.314 610.504 518.472 610.402 518.655C610.38 518.721 610.35 518.769 610.314 518.798C610.284 518.827 610.24 518.842 610.182 518.842H609.709C609.643 518.842 609.584 518.82 609.533 518.776C609.489 518.725 609.467 518.666 609.467 518.6C609.474 518.424 609.555 518.226 609.709 518.006C609.87 517.779 610.116 517.584 610.446 517.423C610.776 517.254 611.183 517.17 611.667 517.17C612.488 517.17 613.078 517.364 613.438 517.753C613.797 518.134 613.977 518.611 613.977 519.183V522.747C613.977 522.82 613.951 522.883 613.9 522.934C613.856 522.978 613.797 523 613.724 523H613.218C613.144 523 613.082 522.978 613.031 522.934C612.987 522.883 612.965 522.82 612.965 522.747V522.274C612.803 522.509 612.569 522.707 612.261 522.868C611.953 523.029 611.56 523.11 611.084 523.11ZM611.315 522.285C611.791 522.285 612.18 522.131 612.481 521.823C612.789 521.508 612.943 521.057 612.943 520.47V520.162L611.667 520.349C611.146 520.422 610.754 520.547 610.49 520.723C610.226 520.892 610.094 521.108 610.094 521.372C610.094 521.665 610.215 521.893 610.457 522.054C610.699 522.208 610.985 522.285 611.315 522.285ZM616.441 525.09C616.382 525.09 616.331 525.068 616.287 525.024C616.243 524.98 616.221 524.929 616.221 524.87C616.221 524.819 616.239 524.753 616.276 524.672L617.123 522.659L615.022 517.698C614.985 517.603 614.967 517.54 614.967 517.511C614.967 517.445 614.989 517.39 615.033 517.346C615.077 517.302 615.132 517.28 615.198 517.28H615.737C615.854 517.28 615.942 517.342 616.001 517.467L617.673 521.471L619.389 517.467C619.448 517.342 619.539 517.28 619.664 517.28H620.181C620.247 517.28 620.302 517.302 620.346 517.346C620.39 517.39 620.412 517.441 620.412 517.5C620.412 517.522 620.394 517.588 620.357 517.698L617.233 524.903C617.174 525.028 617.083 525.09 616.958 525.09H616.441ZM623.406 523.11C622.643 523.11 622.068 522.861 621.679 522.362C621.29 521.863 621.085 521.233 621.063 520.47L621.052 520.14L621.063 519.81C621.085 519.055 621.29 518.428 621.679 517.929C622.068 517.423 622.643 517.17 623.406 517.17C624.161 517.17 624.755 517.438 625.188 517.973V515.443C625.188 515.37 625.21 515.311 625.254 515.267C625.305 515.216 625.368 515.19 625.441 515.19H625.969C626.042 515.19 626.101 515.216 626.145 515.267C626.196 515.311 626.222 515.37 626.222 515.443V522.747C626.222 522.82 626.196 522.883 626.145 522.934C626.101 522.978 626.042 523 625.969 523H625.474C625.401 523 625.338 522.978 625.287 522.934C625.243 522.883 625.221 522.82 625.221 522.747V522.285C624.796 522.835 624.191 523.11 623.406 523.11ZM623.637 522.219C624.143 522.219 624.521 522.054 624.77 521.724C625.027 521.387 625.166 520.987 625.188 520.525C625.195 520.444 625.199 520.305 625.199 520.107C625.199 519.902 625.195 519.759 625.188 519.678C625.173 519.245 625.034 518.868 624.77 518.545C624.506 518.222 624.128 518.061 623.637 518.061C623.116 518.061 622.735 518.222 622.493 518.545C622.258 518.868 622.13 519.293 622.108 519.821L622.097 520.14C622.097 521.526 622.61 522.219 623.637 522.219ZM629.453 523.11C629.094 523.11 628.76 523.037 628.452 522.89C628.144 522.743 627.898 522.545 627.715 522.296C627.539 522.039 627.451 521.757 627.451 521.449C627.451 520.965 627.649 520.569 628.045 520.261C628.448 519.946 628.991 519.74 629.673 519.645L631.312 519.414V519.095C631.312 518.347 630.883 517.973 630.025 517.973C629.702 517.973 629.438 518.043 629.233 518.182C629.028 518.314 628.874 518.472 628.771 518.655C628.749 518.721 628.72 518.769 628.683 518.798C628.654 518.827 628.61 518.842 628.551 518.842H628.078C628.012 518.842 627.953 518.82 627.902 518.776C627.858 518.725 627.836 518.666 627.836 518.6C627.843 518.424 627.924 518.226 628.078 518.006C628.239 517.779 628.485 517.584 628.815 517.423C629.145 517.254 629.552 517.17 630.036 517.17C630.857 517.17 631.448 517.364 631.807 517.753C632.166 518.134 632.346 518.611 632.346 519.183V522.747C632.346 522.82 632.32 522.883 632.269 522.934C632.225 522.978 632.166 523 632.093 523H631.587C631.514 523 631.451 522.978 631.4 522.934C631.356 522.883 631.334 522.82 631.334 522.747V522.274C631.173 522.509 630.938 522.707 630.63 522.868C630.322 523.029 629.93 523.11 629.453 523.11ZM629.684 522.285C630.161 522.285 630.549 522.131 630.85 521.823C631.158 521.508 631.312 521.057 631.312 520.47V520.162L630.036 520.349C629.515 520.422 629.123 520.547 628.859 520.723C628.595 520.892 628.463 521.108 628.463 521.372C628.463 521.665 628.584 521.893 628.826 522.054C629.068 522.208 629.354 522.285 629.684 522.285ZM636.547 523.825C636.488 523.825 636.44 523.803 636.404 523.759C636.374 523.715 636.363 523.66 636.371 523.594L636.624 522.021C636.653 521.808 636.756 521.702 636.932 521.702H637.669C637.72 521.702 637.76 521.72 637.79 521.757C637.826 521.794 637.845 521.838 637.845 521.889C637.845 521.926 637.834 521.984 637.812 522.065L637.229 523.572C637.192 523.66 637.152 523.722 637.108 523.759C637.064 523.803 636.998 523.825 636.91 523.825H636.547ZM644.886 523.11C644.094 523.11 643.493 522.835 643.082 522.285V522.747C643.082 522.82 643.056 522.883 643.005 522.934C642.961 522.978 642.902 523 642.829 523H642.323C642.25 523 642.187 522.978 642.136 522.934C642.092 522.883 642.07 522.82 642.07 522.747V515.443C642.07 515.37 642.092 515.311 642.136 515.267C642.187 515.216 642.25 515.19 642.323 515.19H642.862C642.935 515.19 642.994 515.216 643.038 515.267C643.082 515.311 643.104 515.37 643.104 515.443V517.973C643.537 517.438 644.131 517.17 644.886 517.17C645.649 517.17 646.224 517.423 646.613 517.929C647.002 518.428 647.211 519.055 647.24 519.81C647.247 519.891 647.251 520.001 647.251 520.14C647.251 520.279 647.247 520.389 647.24 520.47C647.211 521.233 647.002 521.863 646.613 522.362C646.224 522.861 645.649 523.11 644.886 523.11ZM644.655 522.219C645.176 522.219 645.553 522.058 645.788 521.735C646.03 521.412 646.162 520.987 646.184 520.459C646.191 520.386 646.195 520.279 646.195 520.14C646.195 518.754 645.682 518.061 644.655 518.061C644.164 518.061 643.786 518.222 643.522 518.545C643.258 518.868 643.119 519.245 643.104 519.678L643.093 520.107L643.104 520.525C643.126 520.987 643.262 521.387 643.511 521.724C643.768 522.054 644.149 522.219 644.655 522.219ZM649.387 525.09C649.329 525.09 649.277 525.068 649.233 525.024C649.189 524.98 649.167 524.929 649.167 524.87C649.167 524.819 649.186 524.753 649.222 524.672L650.069 522.659L647.968 517.698C647.932 517.603 647.913 517.54 647.913 517.511C647.913 517.445 647.935 517.39 647.979 517.346C648.023 517.302 648.078 517.28 648.144 517.28H648.683C648.801 517.28 648.889 517.342 648.947 517.467L650.619 521.471L652.335 517.467C652.394 517.342 652.486 517.28 652.61 517.28H653.127C653.193 517.28 653.248 517.302 653.292 517.346C653.336 517.39 653.358 517.441 653.358 517.5C653.358 517.522 653.34 517.588 653.303 517.698L650.179 524.903C650.121 525.028 650.029 525.09 649.904 525.09H649.387ZM658.996 523.11C658.299 523.11 657.76 522.886 657.379 522.439C656.998 521.984 656.807 521.383 656.807 520.635V517.533C656.807 517.46 656.829 517.401 656.873 517.357C656.924 517.306 656.987 517.28 657.06 517.28H657.61C657.683 517.28 657.742 517.306 657.786 517.357C657.837 517.401 657.863 517.46 657.863 517.533V520.58C657.863 521.673 658.34 522.219 659.293 522.219C659.755 522.219 660.122 522.076 660.393 521.79C660.664 521.497 660.8 521.093 660.8 520.58V517.533C660.8 517.46 660.822 517.401 660.866 517.357C660.917 517.306 660.98 517.28 661.053 517.28H661.603C661.676 517.28 661.735 517.306 661.779 517.357C661.823 517.401 661.845 517.46 661.845 517.533V522.747C661.845 522.82 661.823 522.883 661.779 522.934C661.735 522.978 661.676 523 661.603 523H661.086C661.013 523 660.95 522.978 660.899 522.934C660.855 522.883 660.833 522.82 660.833 522.747V522.263C660.628 522.542 660.378 522.754 660.085 522.901C659.792 523.04 659.429 523.11 658.996 523.11ZM665.459 523.11C664.946 523.11 664.513 523.029 664.161 522.868C663.816 522.699 663.556 522.509 663.38 522.296C663.211 522.083 663.127 521.907 663.127 521.768C663.127 521.695 663.153 521.64 663.204 521.603C663.263 521.559 663.321 521.537 663.38 521.537H663.875C663.948 521.537 664.014 521.574 664.073 521.647C664.249 521.852 664.44 522.014 664.645 522.131C664.85 522.248 665.125 522.307 665.47 522.307C665.851 522.307 666.159 522.234 666.394 522.087C666.636 521.933 666.757 521.724 666.757 521.46C666.757 521.284 666.706 521.141 666.603 521.031C666.508 520.914 666.339 520.815 666.097 520.734C665.862 520.646 665.51 520.551 665.041 520.448C664.403 520.309 663.948 520.107 663.677 519.843C663.413 519.579 663.281 519.238 663.281 518.82C663.281 518.541 663.362 518.277 663.523 518.028C663.692 517.771 663.934 517.566 664.249 517.412C664.572 517.251 664.957 517.17 665.404 517.17C665.873 517.17 666.273 517.247 666.603 517.401C666.933 517.555 667.179 517.738 667.34 517.951C667.509 518.156 667.593 518.329 667.593 518.468C667.593 518.534 667.567 518.589 667.516 518.633C667.472 518.677 667.417 518.699 667.351 518.699H666.889C666.801 518.699 666.728 518.662 666.669 518.589C666.552 518.45 666.449 518.343 666.361 518.27C666.28 518.189 666.159 518.12 665.998 518.061C665.844 518.002 665.646 517.973 665.404 517.973C665.052 517.973 664.781 518.05 664.59 518.204C664.399 518.351 664.304 518.545 664.304 518.787C664.304 518.941 664.344 519.073 664.425 519.183C664.506 519.286 664.66 519.381 664.887 519.469C665.122 519.557 665.459 519.649 665.899 519.744C666.596 519.891 667.087 520.103 667.373 520.382C667.666 520.653 667.813 521.002 667.813 521.427C667.813 521.742 667.721 522.028 667.538 522.285C667.355 522.542 667.083 522.743 666.724 522.89C666.372 523.037 665.95 523.11 665.459 523.11ZM669.251 516.213C669.178 516.213 669.116 516.191 669.064 516.147C669.02 516.096 668.998 516.033 668.998 515.96V515.366C668.998 515.293 669.02 515.23 669.064 515.179C669.116 515.128 669.178 515.102 669.251 515.102H669.944C670.018 515.102 670.08 515.128 670.131 515.179C670.183 515.23 670.208 515.293 670.208 515.366V515.96C670.208 516.033 670.183 516.096 670.131 516.147C670.08 516.191 670.018 516.213 669.944 516.213H669.251ZM669.339 523C669.266 523 669.204 522.978 669.152 522.934C669.108 522.883 669.086 522.82 669.086 522.747V517.533C669.086 517.46 669.108 517.401 669.152 517.357C669.204 517.306 669.266 517.28 669.339 517.28H669.867C669.941 517.28 669.999 517.306 670.043 517.357C670.095 517.401 670.12 517.46 670.12 517.533V522.747C670.12 522.82 670.095 522.883 670.043 522.934C669.999 522.978 669.941 523 669.867 523H669.339ZM672.004 523C671.93 523 671.868 522.978 671.817 522.934C671.773 522.883 671.751 522.82 671.751 522.747V517.533C671.751 517.46 671.773 517.401 671.817 517.357C671.868 517.306 671.93 517.28 672.004 517.28H672.521C672.594 517.28 672.653 517.306 672.697 517.357C672.748 517.401 672.774 517.46 672.774 517.533V518.017C672.986 517.746 673.236 517.537 673.522 517.39C673.815 517.243 674.178 517.17 674.611 517.17C675.315 517.17 675.861 517.397 676.25 517.852C676.646 518.299 676.844 518.897 676.844 519.645V522.747C676.844 522.82 676.818 522.883 676.767 522.934C676.723 522.978 676.664 523 676.591 523H676.041C675.967 523 675.905 522.978 675.854 522.934C675.81 522.883 675.788 522.82 675.788 522.747V519.7C675.788 519.179 675.659 518.776 675.403 518.49C675.153 518.204 674.79 518.061 674.314 518.061C673.852 518.061 673.485 518.208 673.214 518.501C672.942 518.787 672.807 519.187 672.807 519.7V522.747C672.807 522.82 672.781 522.883 672.73 522.934C672.686 522.978 672.627 523 672.554 523H672.004ZM680.764 525.42C680.163 525.42 679.679 525.317 679.312 525.112C678.946 524.914 678.685 524.687 678.531 524.43C678.377 524.173 678.293 523.942 678.278 523.737C678.271 523.664 678.293 523.601 678.344 523.55C678.403 523.499 678.465 523.473 678.531 523.473H679.059C679.125 523.473 679.18 523.488 679.224 523.517C679.268 523.554 679.305 523.616 679.334 523.704C679.422 523.939 679.565 524.14 679.763 524.309C679.969 524.485 680.284 524.573 680.709 524.573C681.252 524.573 681.652 524.456 681.908 524.221C682.165 523.994 682.293 523.587 682.293 523V522.252C682.103 522.494 681.861 522.688 681.567 522.835C681.274 522.974 680.926 523.044 680.522 523.044C679.745 523.044 679.162 522.798 678.773 522.307C678.392 521.808 678.19 521.178 678.168 520.415L678.157 520.107L678.168 519.81C678.19 519.055 678.396 518.428 678.784 517.929C679.173 517.423 679.752 517.17 680.522 517.17C681.292 517.17 681.894 517.452 682.326 518.017V517.544C682.326 517.471 682.348 517.408 682.392 517.357C682.444 517.306 682.506 517.28 682.579 517.28H683.085C683.159 517.28 683.221 517.306 683.272 517.357C683.324 517.408 683.349 517.471 683.349 517.544V522.879C683.349 524.573 682.488 525.42 680.764 525.42ZM680.742 522.164C681.241 522.164 681.619 521.999 681.875 521.669C682.132 521.339 682.271 520.947 682.293 520.492C682.301 520.426 682.304 520.298 682.304 520.107C682.304 519.924 682.301 519.799 682.293 519.733C682.271 519.278 682.132 518.886 681.875 518.556C681.626 518.226 681.248 518.061 680.742 518.061C680.222 518.061 679.844 518.222 679.609 518.545C679.375 518.868 679.246 519.293 679.224 519.821L679.213 520.107L679.224 520.404C679.246 520.925 679.375 521.35 679.609 521.68C679.844 522.003 680.222 522.164 680.742 522.164ZM688.077 523C688.004 523 687.942 522.978 687.89 522.934C687.846 522.883 687.824 522.82 687.824 522.747V515.564C687.824 515.483 687.846 515.421 687.89 515.377C687.942 515.326 688.004 515.3 688.077 515.3H688.627C688.745 515.3 688.84 515.359 688.913 515.476L691.234 519.92L693.577 515.476C693.592 515.432 693.621 515.392 693.665 515.355C693.717 515.318 693.779 515.3 693.852 515.3H694.391C694.472 515.3 694.534 515.326 694.578 515.377C694.63 515.421 694.655 515.483 694.655 515.564V522.747C694.655 522.82 694.63 522.883 694.578 522.934C694.527 522.978 694.465 523 694.391 523H693.852C693.779 523 693.717 522.978 693.665 522.934C693.621 522.883 693.599 522.82 693.599 522.747V517.335L691.762 520.921C691.689 521.075 691.572 521.152 691.41 521.152H691.069C690.908 521.152 690.791 521.075 690.717 520.921L688.869 517.335V522.747C688.869 522.82 688.844 522.883 688.792 522.934C688.748 522.978 688.69 523 688.616 523H688.077ZM696.58 516.213C696.506 516.213 696.444 516.191 696.393 516.147C696.349 516.096 696.327 516.033 696.327 515.96V515.366C696.327 515.293 696.349 515.23 696.393 515.179C696.444 515.128 696.506 515.102 696.58 515.102H697.273C697.346 515.102 697.408 515.128 697.46 515.179C697.511 515.23 697.537 515.293 697.537 515.366V515.96C697.537 516.033 697.511 516.096 697.46 516.147C697.408 516.191 697.346 516.213 697.273 516.213H696.58ZM696.668 523C696.594 523 696.532 522.978 696.481 522.934C696.437 522.883 696.415 522.82 696.415 522.747V517.533C696.415 517.46 696.437 517.401 696.481 517.357C696.532 517.306 696.594 517.28 696.668 517.28H697.196C697.269 517.28 697.328 517.306 697.372 517.357C697.423 517.401 697.449 517.46 697.449 517.533V522.747C697.449 522.82 697.423 522.883 697.372 522.934C697.328 522.978 697.269 523 697.196 523H696.668ZM699.904 523C699.83 523 699.768 522.978 699.717 522.934C699.673 522.883 699.651 522.82 699.651 522.747V518.16H698.716C698.642 518.16 698.58 518.138 698.529 518.094C698.485 518.043 698.463 517.98 698.463 517.907V517.533C698.463 517.46 698.485 517.401 698.529 517.357C698.58 517.306 698.642 517.28 698.716 517.28H699.651V516.73C699.651 515.483 700.281 514.86 701.543 514.86H702.203C702.276 514.86 702.335 514.886 702.379 514.937C702.43 514.981 702.456 515.04 702.456 515.113V515.487C702.456 515.56 702.43 515.623 702.379 515.674C702.335 515.718 702.276 515.74 702.203 515.74H701.565C701.235 515.74 701.004 515.828 700.872 516.004C700.74 516.173 700.674 516.433 700.674 516.785V517.28H703.028V516.73C703.028 516.129 703.174 515.667 703.468 515.344C703.768 515.021 704.249 514.86 704.909 514.86H705.525C705.598 514.86 705.657 514.886 705.701 514.937C705.752 514.981 705.778 515.04 705.778 515.113V515.487C705.778 515.56 705.752 515.623 705.701 515.674C705.657 515.718 705.598 515.74 705.525 515.74H704.942C704.604 515.74 704.37 515.828 704.238 516.004C704.106 516.173 704.04 516.433 704.04 516.785V517.28H706.394V515.113C706.394 515.04 706.416 514.981 706.46 514.937C706.511 514.886 706.573 514.86 706.647 514.86H707.164C707.237 514.86 707.296 514.886 707.34 514.937C707.391 514.981 707.417 515.04 707.417 515.113V522.747C707.417 522.82 707.391 522.883 707.34 522.934C707.296 522.978 707.237 523 707.164 523H706.647C706.573 523 706.511 522.978 706.46 522.934C706.416 522.883 706.394 522.82 706.394 522.747V518.16H704.04V522.747C704.04 522.82 704.014 522.883 703.963 522.934C703.919 522.978 703.86 523 703.787 523H703.281C703.207 523 703.145 522.978 703.094 522.934C703.05 522.883 703.028 522.82 703.028 522.747V518.16H700.674V522.747C700.674 522.82 700.648 522.883 700.597 522.934C700.553 522.978 700.494 523 700.421 523H699.904ZM709.223 516.213C709.15 516.213 709.087 516.191 709.036 516.147C708.992 516.096 708.97 516.033 708.97 515.96V515.366C708.97 515.293 708.992 515.23 709.036 515.179C709.087 515.128 709.15 515.102 709.223 515.102H709.916C709.989 515.102 710.052 515.128 710.103 515.179C710.154 515.23 710.18 515.293 710.18 515.366V515.96C710.18 516.033 710.154 516.096 710.103 516.147C710.052 516.191 709.989 516.213 709.916 516.213H709.223ZM709.311 523C709.238 523 709.175 522.978 709.124 522.934C709.08 522.883 709.058 522.82 709.058 522.747V517.533C709.058 517.46 709.08 517.401 709.124 517.357C709.175 517.306 709.238 517.28 709.311 517.28H709.839C709.912 517.28 709.971 517.306 710.015 517.357C710.066 517.401 710.092 517.46 710.092 517.533V522.747C710.092 522.82 710.066 522.883 710.015 522.934C709.971 522.978 709.912 523 709.839 523H709.311ZM711.975 523C711.902 523 711.84 522.978 711.788 522.934C711.744 522.883 711.722 522.82 711.722 522.747V517.533C711.722 517.46 711.744 517.401 711.788 517.357C711.84 517.306 711.902 517.28 711.975 517.28H712.492C712.566 517.28 712.624 517.306 712.668 517.357C712.72 517.401 712.745 517.46 712.745 517.533V518.017C712.958 517.746 713.207 517.537 713.493 517.39C713.787 517.243 714.15 517.17 714.582 517.17C715.286 517.17 715.833 517.397 716.221 517.852C716.617 518.299 716.815 518.897 716.815 519.645V522.747C716.815 522.82 716.79 522.883 716.738 522.934C716.694 522.978 716.636 523 716.562 523H716.012C715.939 523 715.877 522.978 715.825 522.934C715.781 522.883 715.759 522.82 715.759 522.747V519.7C715.759 519.179 715.631 518.776 715.374 518.49C715.125 518.204 714.762 518.061 714.285 518.061C713.823 518.061 713.457 518.208 713.185 518.501C712.914 518.787 712.778 519.187 712.778 519.7V522.747C712.778 522.82 712.753 522.883 712.701 522.934C712.657 522.978 712.599 523 712.525 523H711.975ZM718.591 520.162C718.518 520.162 718.455 520.14 718.404 520.096C718.36 520.045 718.338 519.982 718.338 519.909V519.491C718.338 519.418 718.36 519.359 718.404 519.315C718.455 519.264 718.518 519.238 718.591 519.238H721.891C721.964 519.238 722.023 519.264 722.067 519.315C722.118 519.359 722.144 519.418 722.144 519.491V519.909C722.144 519.982 722.118 520.045 722.067 520.096C722.023 520.14 721.964 520.162 721.891 520.162H718.591ZM726.157 523.11C725.548 523.11 725.02 523.015 724.573 522.824C724.133 522.633 723.795 522.384 723.561 522.076C723.326 521.761 723.201 521.423 723.187 521.064C723.187 521.005 723.209 520.954 723.253 520.91C723.304 520.859 723.363 520.833 723.429 520.833H723.99C724.129 520.833 724.224 520.906 724.276 521.053C724.342 521.361 724.529 521.625 724.837 521.845C725.152 522.065 725.592 522.175 726.157 522.175C726.765 522.175 727.224 522.069 727.532 521.856C727.84 521.636 727.994 521.332 727.994 520.943C727.994 520.694 727.917 520.492 727.763 520.338C727.616 520.184 727.396 520.048 727.103 519.931C726.809 519.814 726.369 519.667 725.783 519.491C725.211 519.33 724.756 519.157 724.419 518.974C724.081 518.791 723.828 518.563 723.66 518.292C723.491 518.021 723.407 517.68 723.407 517.269C723.407 516.873 723.513 516.517 723.726 516.202C723.946 515.887 724.257 515.641 724.661 515.465C725.064 515.282 725.544 515.19 726.102 515.19C726.674 515.19 727.165 515.293 727.576 515.498C727.986 515.696 728.298 515.949 728.511 516.257C728.723 516.565 728.837 516.873 728.852 517.181C728.852 517.24 728.83 517.291 728.786 517.335C728.749 517.379 728.694 517.401 728.621 517.401H728.038C727.884 517.401 727.788 517.331 727.752 517.192C727.708 516.884 727.535 516.631 727.235 516.433C726.934 516.228 726.556 516.125 726.102 516.125C725.603 516.125 725.211 516.22 724.925 516.411C724.639 516.602 724.496 516.884 724.496 517.258C724.496 517.507 724.562 517.713 724.694 517.874C724.833 518.035 725.042 518.178 725.321 518.303C725.599 518.42 726.006 518.556 726.542 518.71C727.165 518.879 727.656 519.055 728.016 519.238C728.375 519.414 728.643 519.638 728.819 519.909C728.995 520.173 729.083 520.51 729.083 520.921C729.083 521.603 728.819 522.138 728.291 522.527C727.763 522.916 727.051 523.11 726.157 523.11ZM732.614 523C731.456 523 730.876 522.355 730.876 521.064V518.16H730.018C729.945 518.16 729.883 518.138 729.831 518.094C729.787 518.043 729.765 517.98 729.765 517.907V517.533C729.765 517.46 729.787 517.401 729.831 517.357C729.883 517.306 729.945 517.28 730.018 517.28H730.876V515.443C730.876 515.37 730.898 515.311 730.942 515.267C730.994 515.216 731.056 515.19 731.129 515.19H731.646C731.72 515.19 731.778 515.216 731.822 515.267C731.874 515.311 731.899 515.37 731.899 515.443V517.28H733.263C733.337 517.28 733.395 517.306 733.439 517.357C733.491 517.401 733.516 517.46 733.516 517.533V517.907C733.516 517.98 733.491 518.043 733.439 518.094C733.395 518.138 733.337 518.16 733.263 518.16H731.899V520.987C731.899 521.354 731.962 521.632 732.086 521.823C732.211 522.006 732.416 522.098 732.702 522.098H733.373C733.447 522.098 733.505 522.124 733.549 522.175C733.601 522.219 733.626 522.278 733.626 522.351V522.747C733.626 522.82 733.601 522.883 733.549 522.934C733.505 522.978 733.447 523 733.373 523H732.614ZM739.806 523.11C739.006 523.11 738.343 522.912 737.815 522.516C737.287 522.12 737.008 521.541 736.979 520.778C736.979 520.712 737.001 520.657 737.045 520.613C737.089 520.562 737.147 520.536 737.221 520.536H737.815C737.969 520.536 738.064 520.62 738.101 520.789C738.145 521.258 738.324 521.607 738.64 521.834C738.955 522.061 739.351 522.175 739.828 522.175C740.378 522.175 740.799 521.995 741.093 521.636C741.393 521.269 741.544 520.778 741.544 520.162V516.257H737.639C737.565 516.257 737.503 516.235 737.452 516.191C737.408 516.14 737.386 516.077 737.386 516.004V515.553C737.386 515.48 737.408 515.421 737.452 515.377C737.503 515.326 737.565 515.3 737.639 515.3H742.38C742.46 515.3 742.523 515.326 742.567 515.377C742.618 515.421 742.644 515.483 742.644 515.564V520.184C742.644 521.079 742.391 521.79 741.885 522.318C741.386 522.846 740.693 523.11 739.806 523.11ZM746.634 523.11C745.879 523.11 745.274 522.879 744.819 522.417C744.372 521.948 744.126 521.31 744.082 520.503L744.071 520.129L744.082 519.766C744.134 518.974 744.383 518.343 744.83 517.874C745.285 517.405 745.883 517.17 746.623 517.17C747.437 517.17 748.068 517.43 748.515 517.951C748.963 518.464 749.186 519.161 749.186 520.041V520.228C749.186 520.301 749.161 520.364 749.109 520.415C749.065 520.459 749.007 520.481 748.933 520.481H745.127V520.58C745.149 521.057 745.292 521.464 745.556 521.801C745.828 522.131 746.183 522.296 746.623 522.296C746.961 522.296 747.236 522.23 747.448 522.098C747.668 521.959 747.83 521.816 747.932 521.669C747.998 521.581 748.046 521.53 748.075 521.515C748.112 521.493 748.174 521.482 748.262 521.482H748.801C748.867 521.482 748.922 521.5 748.966 521.537C749.01 521.574 749.032 521.625 749.032 521.691C749.032 521.852 748.93 522.047 748.724 522.274C748.526 522.501 748.244 522.699 747.877 522.868C747.518 523.029 747.104 523.11 746.634 523.11ZM748.141 519.722V519.689C748.141 519.183 748.002 518.772 747.723 518.457C747.452 518.134 747.085 517.973 746.623 517.973C746.161 517.973 745.795 518.134 745.523 518.457C745.259 518.772 745.127 519.183 745.127 519.689V519.722H748.141ZM752.845 523.11C752.038 523.11 751.411 522.883 750.964 522.428C750.524 521.973 750.289 521.368 750.26 520.613L750.249 520.14L750.26 519.667C750.289 518.919 750.527 518.318 750.975 517.863C751.422 517.401 752.045 517.17 752.845 517.17C753.644 517.17 754.267 517.401 754.715 517.863C755.162 518.318 755.4 518.919 755.43 519.667C755.437 519.748 755.441 519.905 755.441 520.14C755.441 520.375 755.437 520.532 755.43 520.613C755.4 521.368 755.162 521.973 754.715 522.428C754.275 522.883 753.651 523.11 752.845 523.11ZM752.845 522.263C753.307 522.263 753.67 522.116 753.934 521.823C754.205 521.53 754.352 521.108 754.374 520.558C754.381 520.485 754.385 520.345 754.385 520.14C754.385 519.935 754.381 519.795 754.374 519.722C754.352 519.172 754.205 518.75 753.934 518.457C753.67 518.164 753.307 518.017 752.845 518.017C752.383 518.017 752.016 518.164 751.745 518.457C751.473 518.75 751.33 519.172 751.316 519.722L751.304 520.14L751.316 520.558C751.33 521.108 751.473 521.53 751.745 521.823C752.016 522.116 752.383 522.263 752.845 522.263ZM757.071 523C756.998 523 756.935 522.978 756.884 522.934C756.84 522.883 756.818 522.82 756.818 522.747V517.544C756.818 517.471 756.84 517.408 756.884 517.357C756.935 517.306 756.998 517.28 757.071 517.28H757.577C757.65 517.28 757.713 517.306 757.764 517.357C757.815 517.408 757.841 517.471 757.841 517.544V518.028C758.142 517.529 758.655 517.28 759.381 517.28H759.81C759.883 517.28 759.942 517.306 759.986 517.357C760.037 517.401 760.063 517.46 760.063 517.533V517.984C760.063 518.057 760.037 518.116 759.986 518.16C759.942 518.204 759.883 518.226 759.81 518.226H759.15C758.754 518.226 758.442 518.343 758.215 518.578C757.988 518.805 757.874 519.117 757.874 519.513V522.747C757.874 522.82 757.848 522.883 757.797 522.934C757.746 522.978 757.683 523 757.61 523H757.071ZM765.723 523.11C764.968 523.11 764.363 522.879 763.908 522.417C763.461 521.948 763.215 521.31 763.171 520.503L763.16 520.129L763.171 519.766C763.222 518.974 763.472 518.343 763.919 517.874C764.374 517.405 764.971 517.17 765.712 517.17C766.526 517.17 767.157 517.43 767.604 517.951C768.051 518.464 768.275 519.161 768.275 520.041V520.228C768.275 520.301 768.249 520.364 768.198 520.415C768.154 520.459 768.095 520.481 768.022 520.481H764.216V520.58C764.238 521.057 764.381 521.464 764.645 521.801C764.916 522.131 765.272 522.296 765.712 522.296C766.049 522.296 766.324 522.23 766.537 522.098C766.757 521.959 766.918 521.816 767.021 521.669C767.087 521.581 767.135 521.53 767.164 521.515C767.201 521.493 767.263 521.482 767.351 521.482H767.89C767.956 521.482 768.011 521.5 768.055 521.537C768.099 521.574 768.121 521.625 768.121 521.691C768.121 521.852 768.018 522.047 767.813 522.274C767.615 522.501 767.333 522.699 766.966 522.868C766.607 523.029 766.192 523.11 765.723 523.11ZM767.23 519.722V519.689C767.23 519.183 767.091 518.772 766.812 518.457C766.541 518.134 766.174 517.973 765.712 517.973C765.25 517.973 764.883 518.134 764.612 518.457C764.348 518.772 764.216 519.183 764.216 519.689V519.722H767.23ZM773.726 525.09C773.653 525.09 773.591 525.064 773.539 525.013C773.495 524.969 773.473 524.91 773.473 524.837V522.285C773.048 522.835 772.454 523.11 771.691 523.11C770.929 523.11 770.353 522.868 769.964 522.384C769.576 521.893 769.37 521.269 769.348 520.514L769.337 520.14L769.348 519.766C769.37 519.003 769.572 518.38 769.953 517.896C770.342 517.412 770.921 517.17 771.691 517.17C772.483 517.17 773.085 517.452 773.495 518.017V517.533C773.495 517.46 773.517 517.401 773.561 517.357C773.613 517.306 773.675 517.28 773.748 517.28H774.254C774.328 517.28 774.386 517.306 774.43 517.357C774.482 517.401 774.507 517.46 774.507 517.533V524.837C774.507 524.91 774.482 524.969 774.43 525.013C774.386 525.064 774.328 525.09 774.254 525.09H773.726ZM771.922 522.219C772.414 522.219 772.791 522.058 773.055 521.735C773.319 521.412 773.459 521.035 773.473 520.602C773.481 520.521 773.484 520.378 773.484 520.173C773.484 519.968 773.481 519.828 773.473 519.755C773.451 519.293 773.312 518.897 773.055 518.567C772.806 518.23 772.428 518.061 771.922 518.061C771.402 518.061 771.02 518.222 770.778 518.545C770.544 518.868 770.415 519.293 770.393 519.821L770.382 520.14C770.382 521.526 770.896 522.219 771.922 522.219ZM778.277 523.11C777.58 523.11 777.041 522.886 776.66 522.439C776.279 521.984 776.088 521.383 776.088 520.635V517.533C776.088 517.46 776.11 517.401 776.154 517.357C776.205 517.306 776.268 517.28 776.341 517.28H776.891C776.964 517.28 777.023 517.306 777.067 517.357C777.118 517.401 777.144 517.46 777.144 517.533V520.58C777.144 521.673 777.621 522.219 778.574 522.219C779.036 522.219 779.403 522.076 779.674 521.79C779.945 521.497 780.081 521.093 780.081 520.58V517.533C780.081 517.46 780.103 517.401 780.147 517.357C780.198 517.306 780.261 517.28 780.334 517.28H780.884C780.957 517.28 781.016 517.306 781.06 517.357C781.104 517.401 781.126 517.46 781.126 517.533V522.747C781.126 522.82 781.104 522.883 781.06 522.934C781.016 522.978 780.957 523 780.884 523H780.367C780.294 523 780.231 522.978 780.18 522.934C780.136 522.883 780.114 522.82 780.114 522.747V522.263C779.909 522.542 779.659 522.754 779.366 522.901C779.073 523.04 778.71 523.11 778.277 523.11ZM784.355 523.11C783.996 523.11 783.662 523.037 783.354 522.89C783.046 522.743 782.801 522.545 782.617 522.296C782.441 522.039 782.353 521.757 782.353 521.449C782.353 520.965 782.551 520.569 782.947 520.261C783.351 519.946 783.893 519.74 784.575 519.645L786.214 519.414V519.095C786.214 518.347 785.785 517.973 784.927 517.973C784.605 517.973 784.341 518.043 784.135 518.182C783.93 518.314 783.776 518.472 783.673 518.655C783.651 518.721 783.622 518.769 783.585 518.798C783.556 518.827 783.512 518.842 783.453 518.842H782.98C782.914 518.842 782.856 518.82 782.804 518.776C782.76 518.725 782.738 518.666 782.738 518.6C782.746 518.424 782.826 518.226 782.98 518.006C783.142 517.779 783.387 517.584 783.717 517.423C784.047 517.254 784.454 517.17 784.938 517.17C785.76 517.17 786.35 517.364 786.709 517.753C787.069 518.134 787.248 518.611 787.248 519.183V522.747C787.248 522.82 787.223 522.883 787.171 522.934C787.127 522.978 787.069 523 786.995 523H786.489C786.416 523 786.354 522.978 786.302 522.934C786.258 522.883 786.236 522.82 786.236 522.747V522.274C786.075 522.509 785.84 522.707 785.532 522.868C785.224 523.029 784.832 523.11 784.355 523.11ZM784.586 522.285C785.063 522.285 785.452 522.131 785.752 521.823C786.06 521.508 786.214 521.057 786.214 520.47V520.162L784.938 520.349C784.418 520.422 784.025 520.547 783.761 520.723C783.497 520.892 783.365 521.108 783.365 521.372C783.365 521.665 783.486 521.893 783.728 522.054C783.97 522.208 784.256 522.285 784.586 522.285ZM791.009 523C789.85 523 789.271 522.355 789.271 521.064V518.16H788.413C788.34 518.16 788.277 518.138 788.226 518.094C788.182 518.043 788.16 517.98 788.16 517.907V517.533C788.16 517.46 788.182 517.401 788.226 517.357C788.277 517.306 788.34 517.28 788.413 517.28H789.271V515.443C789.271 515.37 789.293 515.311 789.337 515.267C789.388 515.216 789.451 515.19 789.524 515.19H790.041C790.114 515.19 790.173 515.216 790.217 515.267C790.268 515.311 790.294 515.37 790.294 515.443V517.28H791.658C791.731 517.28 791.79 517.306 791.834 517.357C791.885 517.401 791.911 517.46 791.911 517.533V517.907C791.911 517.98 791.885 518.043 791.834 518.094C791.79 518.138 791.731 518.16 791.658 518.16H790.294V520.987C790.294 521.354 790.356 521.632 790.481 521.823C790.606 522.006 790.811 522.098 791.097 522.098H791.768C791.841 522.098 791.9 522.124 791.944 522.175C791.995 522.219 792.021 522.278 792.021 522.351V522.747C792.021 522.82 791.995 522.883 791.944 522.934C791.9 522.978 791.841 523 791.768 523H791.009ZM793.238 516.213C793.164 516.213 793.102 516.191 793.051 516.147C793.007 516.096 792.985 516.033 792.985 515.96V515.366C792.985 515.293 793.007 515.23 793.051 515.179C793.102 515.128 793.164 515.102 793.238 515.102H793.931C794.004 515.102 794.066 515.128 794.118 515.179C794.169 515.23 794.195 515.293 794.195 515.366V515.96C794.195 516.033 794.169 516.096 794.118 516.147C794.066 516.191 794.004 516.213 793.931 516.213H793.238ZM793.326 523C793.252 523 793.19 522.978 793.139 522.934C793.095 522.883 793.073 522.82 793.073 522.747V517.533C793.073 517.46 793.095 517.401 793.139 517.357C793.19 517.306 793.252 517.28 793.326 517.28H793.854C793.927 517.28 793.986 517.306 794.03 517.357C794.081 517.401 794.107 517.46 794.107 517.533V522.747C794.107 522.82 794.081 522.883 794.03 522.934C793.986 522.978 793.927 523 793.854 523H793.326ZM798.08 523.11C797.273 523.11 796.646 522.883 796.199 522.428C795.759 521.973 795.524 521.368 795.495 520.613L795.484 520.14L795.495 519.667C795.524 518.919 795.763 518.318 796.21 517.863C796.657 517.401 797.281 517.17 798.08 517.17C798.879 517.17 799.503 517.401 799.95 517.863C800.397 518.318 800.636 518.919 800.665 519.667C800.672 519.748 800.676 519.905 800.676 520.14C800.676 520.375 800.672 520.532 800.665 520.613C800.636 521.368 800.397 521.973 799.95 522.428C799.51 522.883 798.887 523.11 798.08 523.11ZM798.08 522.263C798.542 522.263 798.905 522.116 799.169 521.823C799.44 521.53 799.587 521.108 799.609 520.558C799.616 520.485 799.62 520.345 799.62 520.14C799.62 519.935 799.616 519.795 799.609 519.722C799.587 519.172 799.44 518.75 799.169 518.457C798.905 518.164 798.542 518.017 798.08 518.017C797.618 518.017 797.251 518.164 796.98 518.457C796.709 518.75 796.566 519.172 796.551 519.722L796.54 520.14L796.551 520.558C796.566 521.108 796.709 521.53 796.98 521.823C797.251 522.116 797.618 522.263 798.08 522.263ZM802.306 523C802.233 523 802.171 522.978 802.119 522.934C802.075 522.883 802.053 522.82 802.053 522.747V517.533C802.053 517.46 802.075 517.401 802.119 517.357C802.171 517.306 802.233 517.28 802.306 517.28H802.823C802.897 517.28 802.955 517.306 802.999 517.357C803.051 517.401 803.076 517.46 803.076 517.533V518.017C803.289 517.746 803.538 517.537 803.824 517.39C804.118 517.243 804.481 517.17 804.913 517.17C805.617 517.17 806.164 517.397 806.552 517.852C806.948 518.299 807.146 518.897 807.146 519.645V522.747C807.146 522.82 807.121 522.883 807.069 522.934C807.025 522.978 806.967 523 806.893 523H806.343C806.27 523 806.208 522.978 806.156 522.934C806.112 522.883 806.09 522.82 806.09 522.747V519.7C806.09 519.179 805.962 518.776 805.705 518.49C805.456 518.204 805.093 518.061 804.616 518.061C804.154 518.061 803.788 518.208 803.516 518.501C803.245 518.787 803.109 519.187 803.109 519.7V522.747C803.109 522.82 803.084 522.883 803.032 522.934C802.988 522.978 802.93 523 802.856 523H802.306Z" fill="#F1F1F1"/>
<defs>
<radialGradient id="paint0_radial" cx="0" cy="0" r="1" gradientUnits="userSpaceOnUse" gradientTransform="translate(207.5 280) rotate(90) scale(280 207.5)">
<stop stop-opacity="0"/>
<stop offset="1"/>
</radialGradient>
<radialGradient id="paint1_radial" cx="0" cy="0" r="1" gradientUnits="userSpaceOnUse" gradientTransform="translate(622.5 280) rotate(90) scale(280 207.5)">
<stop stop-opacity="0"/>
<stop offset="1"/>
</radialGradient>
</defs>
</svg>
