<?xml version="1.0" encoding="UTF-8" standalone="no"?>
<svg
   enable-background="new 0 0 56.693 56.693"
   height="30"
   id="Layer_1"
   version="1.1"
   viewBox="0 0 29.999999 29.999999"
   width="30"
   xml:space="preserve"
   sodipodi:docname="behacne.svg"
   inkscape:version="1.1 (c4e8f9ed74, 2021-05-24)"
   xmlns:inkscape="http://www.inkscape.org/namespaces/inkscape"
   xmlns:sodipodi="http://sodipodi.sourceforge.net/DTD/sodipodi-0.dtd"
   xmlns="http://www.w3.org/2000/svg"
   xmlns:svg="http://www.w3.org/2000/svg"><defs
     id="defs15" /><sodipodi:namedview
     id="namedview13"
     pagecolor="#ffffff"
     bordercolor="#666666"
     borderopacity="1.0"
     inkscape:pageshadow="2"
     inkscape:pageopacity="0.0"
     inkscape:pagecheckerboard="0"
     showgrid="false"
     inkscape:zoom="12.029704"
     inkscape:cx="28.388063"
     inkscape:cy="28.304936"
     inkscape:window-width="1920"
     inkscape:window-height="1026"
     inkscape:window-x="0"
     inkscape:window-y="30"
     inkscape:window-maximized="1"
     inkscape:current-layer="Layer_1" /><g
     id="g10"
     transform="matrix(0.60916179,0,0,0.60916179,-2.2679105,-3.1073354)"
     style="fill:#ffffff"><path
       d="m 38.031,27.257 c -3.174,0 -3.615,3.168 -3.615,3.168 h 6.748 c 0,0 0.043,-3.168 -3.133,-3.168 z"
       id="path2"
       style="fill:#ffffff" /><path
       d="m 22.721,30.425 h -5.982 v 5.492 h 5.296 c 0.09,0 0.225,0.002 0.383,0 0.852,-0.02 2.467,-0.268 2.467,-2.67 0,-2.851 -2.164,-2.822 -2.164,-2.822 z"
       id="path4"
       style="fill:#ffffff" /><path
       d="m 28.348,5.101 c -13.6,0 -24.625,11.023 -24.625,24.623 0,13.6 11.025,24.625 24.625,24.625 13.598,0 24.623,-11.025 24.623,-24.625 0,-13.599 -11.026,-24.623 -24.623,-24.623 z m 5.183,15.13 h 8.477 v 2.53 h -8.477 z m -4.285,13.272 c 0,6.271 -6.525,6.064 -6.525,6.064 H 16.739 16.564 12.029 V 19.021 h 4.535 0.175 5.982 c 3.248,0 5.812,1.794 5.812,5.47 0,3.676 -3.135,3.91 -3.135,3.91 4.133,0 3.848,5.102 3.848,5.102 z M 45.104,33.167 H 34.457 c 0,3.816 3.615,3.576 3.615,3.576 3.414,0 3.295,-2.211 3.295,-2.211 h 3.617 c 0,5.867 -7.033,5.465 -7.033,5.465 -8.436,0 -7.893,-7.855 -7.893,-7.855 0,0 -0.008,-7.893 7.893,-7.893 8.317,0 7.153,8.918 7.153,8.918 z"
       id="path6"
       style="fill:#ffffff" /><path
       d="m 24.174,24.81 c 0,-2.137 -1.453,-2.137 -1.453,-2.137 h -0.77 -5.212 v 4.584 h 5.611 c 0.968,0 1.824,-0.311 1.824,-2.447 z"
       id="path8"
       style="fill:#ffffff" /></g></svg>
