<?xml version="1.0" encoding="UTF-8" standalone="no"?>
<svg
   width="30"
   height="30"
   viewBox="0 0 30 30"
   fill="none"
   version="1.1"
   id="svg4"
   sodipodi:docname="github.svg"
   inkscape:version="1.1 (c4e8f9ed74, 2021-05-24)"
   xmlns:inkscape="http://www.inkscape.org/namespaces/inkscape"
   xmlns:sodipodi="http://sodipodi.sourceforge.net/DTD/sodipodi-0.dtd"
   xmlns="http://www.w3.org/2000/svg"
   xmlns:svg="http://www.w3.org/2000/svg">
  <defs
     id="defs8" />
  <sodipodi:namedview
     id="namedview6"
     pagecolor="#ffffff"
     bordercolor="#666666"
     borderopacity="1.0"
     inkscape:pageshadow="2"
     inkscape:pageopacity="0.0"
     inkscape:pagecheckerboard="0"
     showgrid="false"
     inkscape:zoom="8.525"
     inkscape:cx="10.029326"
     inkscape:cy="10.029326"
     inkscape:window-width="1920"
     inkscape:window-height="1026"
     inkscape:window-x="0"
     inkscape:window-y="30"
     inkscape:window-maximized="1"
     inkscape:current-layer="svg4" />
  <path
     fill-rule="evenodd"
     clip-rule="evenodd"
     d="M 14.999055,0 C 6.716055,0 0,6.885642 0,15.379687 c 0,6.794338 4.296705,12.558914 10.258815,14.593371 0.75018,0.140254 0.98649,-0.315419 0.98649,-0.722956 0,-0.365399 0.0075,-1.386395 0,-2.669907 -4.17198,0.929646 -5.036565,-2.025691 -5.036565,-2.025691 -0.681735,-1.776709 -1.664475,-2.24976 -1.664475,-2.24976 -1.361595,-0.953637 0.10221,-0.93549 0.10221,-0.93549 1.50507,0.108728 2.29839,1.585397 2.29839,1.585397 1.33815,2.348799 3.50994,1.66998 4.364205,1.277822 0.13692,-0.994084 0.525135,-1.671979 0.953685,-2.056448 C 8.931915,21.787557 5.43042,20.46852 5.43042,14.575024 c 0,-1.679592 0.584205,-3.051531 1.543515,-4.126384 C 6.81921,10.060234 6.30345,8.4960138 7.12116,6.3780198 c 0,0 1.25937,-0.4134122 4.124145,1.5776766 1.19655,-0.341301 2.48031,-0.511467 3.755595,-0.5172498 1.2744,0.00576 2.5572,0.1759488 3.7557,0.5172498 2.8647,-1.9901353 4.1223,-1.5776766 4.1223,-1.5776766 0.81765,2.117994 0.30285,3.6822142 0.1491,4.0706202 0.95925,1.074853 1.54155,2.446792 1.54155,4.126384 0,5.908875 -3.50715,7.208688 -6.84915,7.58839 0.5382,0.475973 1.02675,1.398852 1.02675,2.833383 0,1.922807 0,3.751343 0,4.25715 0,0.411382 0.24195,0.866132 1.00335,0.717111 C 25.707,27.933834 30,22.17218 30,15.379687 30,6.885642 23.2839,0 14.999055,0 Z"
     fill="white"
     id="path2"
     style="fill:#ffffff;stroke-width:1.51882" />
</svg>
