<?xml version="1.0" encoding="UTF-8" standalone="no"?>
<svg
   width="30"
   height="30"
   viewBox="0 0 30 30"
   fill="none"
   version="1.1"
   id="svg4"
   sodipodi:docname="gpl3.svg"
   inkscape:version="1.1 (c4e8f9ed74, 2021-05-24)"
   xmlns:inkscape="http://www.inkscape.org/namespaces/inkscape"
   xmlns:sodipodi="http://sodipodi.sourceforge.net/DTD/sodipodi-0.dtd"
   xmlns="http://www.w3.org/2000/svg"
   xmlns:svg="http://www.w3.org/2000/svg">
  <defs
     id="defs8" />
  <sodipodi:namedview
     id="namedview6"
     pagecolor="#ffffff"
     bordercolor="#666666"
     borderopacity="1.0"
     inkscape:pageshadow="2"
     inkscape:pageopacity="0.0"
     inkscape:pagecheckerboard="0"
     showgrid="false"
     inkscape:zoom="8.525"
     inkscape:cx="10.029326"
     inkscape:cy="10.029326"
     inkscape:window-width="1920"
     inkscape:window-height="1026"
     inkscape:window-x="0"
     inkscape:window-y="30"
     inkscape:window-maximized="1"
     inkscape:current-layer="svg4" />
  <path
     fill-rule="evenodd"
     clip-rule="evenodd"
     d="M 15,30 C 23.2842,30 30,23.2842 30,15 30,6.715725 23.2842,0 15,0 6.715725,0 0,6.715725 0,15 0,23.2842 6.715725,30 15,30 Z M 3.303285,17.86815 c 0.534075,0.46155 1.275825,0.69225 2.22528,0.69225 0.62637,0 1.17363,-0.10545 1.64175,-0.3165 0.474735,-0.2175 0.84066,-0.5274 1.097805,-0.9297 0.257145,-0.40875 0.38571,-0.8934 0.38571,-1.4538 v -1.127445 c 0,-0.07253 -0.02307,-0.131865 -0.069225,-0.17802 -0.046152,-0.05275 -0.105495,-0.07913 -0.17802,-0.07913 h -2.49231 c -0.072525,0 -0.131865,0.02637 -0.17802,0.07913 C 5.6901,14.60109 5.66703,14.66043 5.66703,14.732955 v 0.731895 c 0,0.07245 0.02307,0.13515 0.069225,0.18795 0.046155,0.04605 0.105495,0.06915 0.17802,0.06915 h 0.92967 v 0.18795 c 0,0.41535 -0.11868,0.72525 -0.35604,0.9297 -0.230775,0.1977 -0.54066,0.2967 -0.92967,0.2967 -0.804405,0 -1.22637,-0.43515 -1.26594,-1.3056 -0.00659,-0.1911 -0.00989,-0.4779 -0.00989,-0.860385 0,-0.38901 0.0033,-0.675825 0.00989,-0.860445 0.03957,-0.83076 0.45165,-1.246155 1.23627,-1.246155 0.32967,0 0.586815,0.07253 0.77142,0.21759 0.18462,0.138465 0.319785,0.3033 0.405495,0.494505 0.026382,0.05274 0.05934,0.08901 0.09891,0.108795 0.039558,0.01977 0.09231,0.02967 0.158235,0.02967 h 1.44396 c 0.05934,0 0.108795,-0.01979 0.14835,-0.05934 0.046158,-0.03957 0.069225,-0.08901 0.069225,-0.148365 -0.013182,-0.336255 -0.14505,-0.662625 -0.395595,-0.97911 -0.24396,-0.316485 -0.6,-0.57693 -1.068135,-0.78132 -0.461535,-0.204405 -1.005495,-0.3066 -1.631865,-0.3066 -0.92967,0 -1.668135,0.227475 -2.21538,0.682425 -0.54066,0.454935 -0.827475,1.10109 -0.860445,1.938465 -0.0066,0.191205 -0.00988,0.494505 -0.00988,0.909885 0,0.415335 0.00329,0.718635 0.00988,0.909885 0.03297,0.8571 0.316485,1.5198 0.850545,1.98795 z m 6.554445,0.5241 c 0.05274,0.0462 0.11208,0.0693 0.17802,0.0693 h 1.335165 c 0.07253,0 0.131865,-0.0231 0.17802,-0.0693 0.05274,-0.04605 0.07912,-0.10545 0.07912,-0.17805 v -2.16585 h 1.176915 c 0.85056,0 1.516485,-0.18465 1.997805,-0.5538 0.48132,-0.3759 0.72192,-0.93303 0.72192,-1.671495 0,-0.74505 -0.2439,-1.31208 -0.731805,-1.70109 -0.48132,-0.38901 -1.14396,-0.583515 -1.98792,-0.583515 h -2.76922 c -0.06594,0 -0.12528,0.02307 -0.17802,0.06923 -0.046152,0.04615 -0.06924,0.105495 -0.06924,0.17802 v 6.4285 c 0,0.066 0.023082,0.1254 0.06924,0.17805 z m 3.580215,-3.926325 C 13.27311,14.610975 13.045635,14.6835 12.75552,14.6835 h -1.15713 v -1.77033 h 1.15713 c 0.3099,0 0.540675,0.08243 0.69231,0.24726 0.15825,0.158235 0.237375,0.372525 0.237375,0.642855 0,0.2901 -0.08243,0.51099 -0.24726,0.66264 z M 16.7193,18.46155 c -0.066,0 -0.12525,-0.0231 -0.17805,-0.0693 C 16.49505,18.3396 16.4721,18.2802 16.4721,18.2142 v -6.428505 c 0,-0.07253 0.02295,-0.131865 0.06915,-0.17802 0.0528,-0.04615 0.11205,-0.06923 0.17805,-0.06923 h 1.30545 c 0.0726,0 0.13185,0.02307 0.17805,0.06923 0.0462,0.04615 0.0693,0.105495 0.0693,0.17802 v 5.182455 h 2.9967 c 0.07245,0 0.13185,0.0264 0.1779,0.07905 0.0462,0.0462 0.0693,0.1056 0.0693,0.17805 v 0.98895 c 0,0.066 -0.0231,0.1254 -0.0693,0.17805 -0.04605,0.0462 -0.10545,0.0693 -0.1779,0.0693 z m 6.56385,-0.19785 c 0.43515,0.19785 0.9726,0.2967 1.61205,0.2967 0.55395,0 1.05165,-0.08895 1.4934,-0.267 0.44175,-0.17805 0.78795,-0.43185 1.03845,-0.76155 0.25065,-0.3297 0.3759,-0.71535 0.3759,-1.1571 0,-0.6066 -0.17805,-1.07145 -0.534,-1.39455 -0.3495,-0.32967 -0.82755,-0.53406 -1.43415,-0.613185 l -0.06915,-0.01979 1.5033,-1.394505 c 0.10545,-0.0923 0.1581,-0.20109 0.1581,-0.32637 v -0.84066 c 0,-0.07252 -0.02625,-0.131862 -0.07905,-0.178017 -0.0462,-0.04616 -0.10545,-0.06923 -0.17805,-0.06923 h -4.5495 c -0.06585,0 -0.12525,0.02307 -0.1779,0.06923 -0.0462,0.04615 -0.0693,0.105495 -0.0693,0.17802 v 0.92967 c 0,0.06594 0.0231,0.12528 0.0693,0.17802 0.05265,0.04615 0.11205,0.06924 0.1779,0.06924 h 2.7495 l -1.62195,1.37472 c -0.10545,0.07913 -0.15825,0.191205 -0.15825,0.33627 V 15.2274 c 0,0.066 0.0231,0.1254 0.0693,0.17805 0.05265,0.0462 0.11205,0.0693 0.1779,0.0693 h 1.09785 c 0.6858,0 1.02855,0.2637 1.02855,0.7911 0,0.27045 -0.09555,0.48465 -0.2868,0.6429 -0.18465,0.15165 -0.44505,0.22755 -0.78135,0.22755 -0.5868,0 -0.94605,-0.17145 -1.0779,-0.51435 C 23.7777,16.5495 23.7348,16.5 23.6886,16.4736 23.64255,16.4472 23.58315,16.434 23.5107,16.434 H 22.215 c -0.05925,0 -0.11205,0.0198 -0.15825,0.0594 -0.03945,0.0396 -0.05925,0.08895 -0.05925,0.14835 0.0132,0.2967 0.12195,0.5934 0.32625,0.8901 0.21105,0.2901 0.53085,0.534 0.9594,0.73185 z"
     fill="white"
     id="path2"
     style="fill:#ffffff;stroke-width:1.5" />
</svg>
