<svg width="300" height="300" viewBox="0 0 300 300" fill="none" xmlns="http://www.w3.org/2000/svg">
<rect x="5" y="5" width="290" height="290" rx="33" fill="#0EA3DB"/>
<rect x="5" y="5" width="290" height="290" rx="33" fill="url(#paint0_radial)" fill-opacity="0.15"/>
<rect x="5" y="5" width="290" height="290" rx="33" stroke="#056387" stroke-width="10"/>
<rect x="5" y="5" width="290" height="290" rx="33" stroke="url(#paint1_radial)" stroke-opacity="0.15" stroke-width="10"/>
<path d="M66.6 202C65.6 202 64.75 201.65 64.05 200.95C63.35 200.25 63 199.4 63 198.4V100.75C63 99.65 63.3 98.75 63.9 98.05C64.6 97.35 65.5 97 66.6 97H103.2C132.6 97 147.6 110.6 148.2 137.8C148.4 143.6 148.5 147.5 148.5 149.5C148.5 151.4 148.4 155.25 148.2 161.05C147.8 175.05 144.05 185.4 136.95 192.1C129.85 198.7 118.85 202 103.95 202H66.6ZM103.2 184.75C111.6 184.75 117.65 182.9 121.35 179.2C125.05 175.4 127 169.2 127.2 160.6C127.4 154.6 127.5 150.85 127.5 149.35C127.5 147.75 127.4 144.05 127.2 138.25C127 130.05 124.9 124 120.9 120.1C117 116.2 110.85 114.25 102.45 114.25H83.85V184.75H103.2Z" fill="white"/>
<path d="M200.419 203.5C189.419 203.5 180.619 200.45 174.019 194.35C167.519 188.25 164.069 179.8 163.669 169L163.519 163L163.669 157C164.069 146.2 167.519 137.75 174.019 131.65C180.619 125.55 189.419 122.5 200.419 122.5C208.219 122.5 214.819 123.9 220.219 126.7C225.719 129.5 229.769 132.95 232.369 137.05C235.069 141.05 236.519 144.85 236.719 148.45C236.819 149.45 236.469 150.3 235.669 151C234.969 151.7 234.119 152.05 233.119 152.05H219.919C218.919 152.05 218.119 151.85 217.519 151.45C217.019 150.95 216.519 150.15 216.019 149.05C214.519 145.15 212.519 142.35 210.019 140.65C207.619 138.95 204.519 138.1 200.719 138.1C195.619 138.1 191.619 139.75 188.719 143.05C185.819 146.25 184.269 151.15 184.069 157.75L183.919 163.3L184.069 168.25C184.469 181.35 190.019 187.9 200.719 187.9C204.619 187.9 207.769 187.05 210.169 185.35C212.569 183.65 214.519 180.85 216.019 176.95C216.519 175.85 217.019 175.1 217.519 174.7C218.119 174.2 218.919 173.95 219.919 173.95H233.119C234.119 173.95 234.969 174.3 235.669 175C236.469 175.7 236.819 176.55 236.719 177.55C236.519 181.05 235.119 184.8 232.519 188.8C229.919 192.8 225.919 196.25 220.519 199.15C215.119 202.05 208.419 203.5 200.419 203.5Z" fill="white"/>
<defs>
<radialGradient id="paint0_radial" cx="0" cy="0" r="1" gradientUnits="userSpaceOnUse" gradientTransform="translate(150 150) rotate(90) scale(150)">
<stop stop-opacity="0"/>
<stop offset="1"/>
</radialGradient>
<radialGradient id="paint1_radial" cx="0" cy="0" r="1" gradientUnits="userSpaceOnUse" gradientTransform="translate(150 150) rotate(90) scale(150)">
<stop stop-opacity="0"/>
<stop offset="1"/>
</radialGradient>
</defs>
</svg>
